<svg width="192" height="152" viewBox="0 0 192 152" fill="none" xmlns="http://www.w3.org/2000/svg">
<path d="M69.0564 152C69.8625 150.048 71.0547 146.994 72.281 143.181C76.7545 129.254 76.1528 122.353 79.4796 108.96C81.0616 102.53 83.1381 96.2305 85.6903 90.1193C89.6827 80.5716 94.9538 71.6102 101.359 63.4807L84.3278 67.3965C80.1236 69.7925 76.2783 72.769 72.9055 76.2382C69.9309 79.3172 67.3072 82.7165 65.0824 86.3738C56.2942 100.414 53.2172 111.616 46.4161 124.85C42.6958 132.069 38.3655 138.957 33.4722 145.439C37.4765 143.275 41.5299 141.123 45.6326 138.981C50.9312 136.197 56.192 133.484 61.415 130.843C62.7548 134.354 64.0908 137.948 65.423 141.626C66.6871 145.137 67.8983 148.595 69.0564 152Z" fill="#E55883"/>
<path d="M118.549 152C117.891 150.116 116.926 147.165 115.961 143.499C112.43 130.106 113.292 123.613 110.829 110.788C109.642 104.62 107.994 98.5496 105.901 92.6276C102.629 83.4098 98.1419 74.669 92.5596 66.636L108.194 71.176C112.004 73.6675 115.444 76.6821 118.413 80.1312C121.047 83.198 123.332 86.5479 125.226 90.1193C132.685 103.841 135.036 114.579 140.758 127.472C143.867 134.482 147.566 141.214 151.817 147.596C148.207 145.326 144.554 143.079 140.861 140.854C136.069 137.948 131.319 135.111 126.611 132.341C125.218 135.588 123.822 138.917 122.421 142.33C121.047 145.644 119.776 148.844 118.549 152Z" fill="#E55883"/>
<path d="M181.963 95.8398C180.751 100.464 179.014 104.935 176.785 109.165C176.785 109.165 172.096 117.779 166.567 121.752C165.979 122.17 165.364 122.549 164.727 122.887C163.759 123.407 162.724 123.789 161.65 124.022C160.359 124.351 159.013 124.405 157.699 124.181C156.113 123.852 154.607 123.212 153.271 122.297C151.845 121.367 150.484 120.343 149.195 119.232C148.99 119.073 147.071 117.53 145.981 116.599C132.356 104.999 115.132 87.0889 115.132 87.0889C113.009 84.8869 110.806 82.7531 108.66 80.5739L107.525 79.3822L106.071 77.8499L101.938 73.5142C101.234 72.7764 101.178 72.7878 99.1337 70.8696C97.4306 69.2579 95.9773 67.8732 94.8873 66.8176C97.228 66.0214 99.408 64.8145 101.325 63.2537C102.727 62.2413 103.909 60.9547 104.799 59.4719C105.689 57.9891 106.269 56.341 106.503 54.6277H108.013L112.804 54.9909C118.97 55.5016 124.635 56.1259 128.087 56.5004C136.538 57.3805 144.913 58.8751 153.146 60.9724C158.848 62.5177 164.376 64.6437 169.644 67.3171C171.751 68.3854 173.742 69.6712 175.582 71.1534C177.955 73.0602 180.339 74.9783 181.906 78.0996C183.473 81.2209 183.393 83.6725 183.405 86.8165C183.337 89.8758 182.852 92.9116 181.963 95.8398Z" fill="#F65783"/>
<path d="M3.14514 91.3338C3.57395 95.9714 4.5457 100.543 6.04046 104.954C6.04046 104.954 9.24236 113.852 14.0565 118.256C14.5638 118.717 15.1025 119.142 15.6688 119.527C16.5323 120.139 17.481 120.621 18.4847 120.957C19.7151 121.407 21.0281 121.585 22.3338 121.48C23.9504 121.284 25.5171 120.791 26.955 120.027C28.5244 119.244 30.0415 118.361 31.4966 117.382C31.7237 117.246 33.847 115.907 35.0732 115.112C50.2652 104.897 70.0215 88.9163 70.0215 88.9163C72.4513 86.9414 74.9493 85.0459 77.4018 83.0937C77.9354 82.6851 78.3555 82.3446 78.7302 82.0381L80.3539 80.5853C81.1487 79.927 82.5339 78.7807 85.0886 76.6923C86.031 75.9318 85.9742 76.0453 88.2564 74.3541C90.1185 72.9694 91.6627 71.8344 92.5597 71.108C90.4023 70.353 88.483 69.0412 86.9961 67.3058C85.7854 65.773 84.8516 64.0407 84.237 62.1869C83.6882 60.7909 83.2553 59.3522 82.9427 57.8852H81.8981C80.2176 57.8852 78.9914 57.7263 78.7757 57.7263C70.8277 57.488 66.8651 57.3745 62.278 57.4993C53.8276 57.5881 45.3952 58.2975 37.0489 59.6218C31.188 60.6301 25.4413 62.2155 19.8926 64.3547C17.6448 65.2171 15.4882 66.3007 13.4548 67.5895C10.8319 69.2466 8.18641 70.9151 6.15401 73.8434C4.1216 76.7717 3.79233 79.1893 3.28139 82.2765C2.81451 85.2745 2.76865 88.3231 3.14514 91.3338Z" fill="#F65783"/>
<path d="M10.0598 13.3476C7.27218 17.8968 4.96618 22.7239 3.17917 27.7508C3.17917 27.7508 -0.420116 38.2836 -9.33558e-06 46.1719C0.0660198 47.0025 0.17975 47.8287 0.340618 48.6462C0.539837 49.8703 0.882835 51.0665 1.3625 52.2102C1.90296 53.5651 2.70113 54.8024 3.71282 55.8535C4.91572 57.0239 6.36166 57.9152 7.94795 58.464C9.52844 59.0568 11.1534 59.5236 12.8076 59.8601C13.0574 59.8601 15.419 60.4957 16.8156 60.7908C34.074 64.4342 58.3721 66.6588 58.3721 66.6588C61.3696 66.9312 64.3558 67.3284 67.3419 67.6462C67.9891 67.7143 68.4773 67.7711 68.9656 67.8052L71.032 67.9867L76.8908 68.4862C78.0263 68.5883 77.9354 68.6451 80.6491 69.0423C82.8404 69.3715 84.6231 69.5985 85.7698 69.746C84.7586 67.2233 84.2868 64.5169 84.3846 61.801C84.5466 59.4771 85.0241 57.1861 85.8039 54.9909C86.3254 53.338 86.9589 51.7226 87.7001 50.1558C87.5524 49.9969 87.2799 49.6905 86.962 49.2932C85.8266 47.8858 85.0318 46.7508 84.8842 46.5578C79.5023 39.7478 76.8113 36.3428 73.53 32.6427C67.674 25.7975 61.313 19.4009 54.5003 13.5065C49.8487 9.60076 44.7851 6.21357 39.3992 3.40491C37.2998 2.33249 35.082 1.50968 32.791 0.953298C29.873 0.238244 26.9322 -0.47681 23.5827 0.419845C20.2332 1.3165 18.4393 3.17791 16.0549 5.48197C13.7117 7.82235 11.6952 10.4681 10.0598 13.3476Z" fill="#EA5783"/>
<path d="M182.667 15.89C185.344 20.5051 187.536 25.3852 189.207 30.4521C189.207 30.4521 192.613 41.0645 191.92 48.9414C191.807 50.1899 191.569 51.393 191.569 51.393C191.331 52.6286 190.95 53.8323 190.433 54.9796C189.862 56.3241 189.037 57.5457 188.003 58.5776C186.777 59.6823 185.335 60.5209 183.768 61.0406C182.171 61.5883 180.535 62.017 178.874 62.3231C178.625 62.3799 176.252 62.902 174.844 63.163C157.517 66.4318 133.185 68.1003 133.185 68.1003C130.176 68.3046 127.19 68.6224 124.193 68.8721L122.558 68.997C121.536 69.0764 120.775 69.1218 120.491 69.1332L114.621 69.4964C113.633 69.5645 113.599 69.6212 110.863 69.9617C108.592 70.2568 106.616 70.4838 105.186 70.6541C106.104 67.9686 106.613 65.1601 106.696 62.3231C106.831 60.2118 106.604 58.0929 106.026 56.0579C105.497 54.3456 104.692 52.7314 103.641 51.2795L104.584 49.9175C105.367 48.9868 106.525 47.6475 107.99 45.9904C112.327 40.951 116.404 36.4223 118.936 33.6983C124.942 27.008 131.44 20.7747 138.374 15.0501C143.071 11.2713 148.165 8.01367 153.566 5.33446C155.687 4.29426 157.924 3.5094 160.231 2.99635C163.16 2.3494 166.112 1.70244 169.439 2.67855C172.766 3.65465 174.526 5.56146 176.853 7.94498C179.134 10.3244 181.089 12.9961 182.667 15.89Z" fill="#EA5783"/>
<path d="M167.259 115.464C167.413 117.048 167.135 118.645 166.453 120.083C165.923 121.117 165.189 122.032 164.295 122.773C163.401 123.514 162.366 124.067 161.253 124.396C159.018 124.845 156.696 124.462 154.724 123.318C153.544 122.737 152.435 122.021 151.42 121.184C147.889 118.563 145.323 116.372 145.118 116.19C140.826 112.502 138.681 110.663 138.022 110.073C128.825 101.787 117.789 90.6301 117.789 90.6301L94.8419 67.7937L97.4306 67.3965C101.212 69.6665 104.334 71.369 106.514 72.5721C107.865 73.2985 109.091 73.9455 110.976 74.9329C114.099 76.5787 116.097 77.5888 118.277 78.7465C122.58 81.0166 127.36 83.9449 137.136 89.7447C141.315 92.2418 143.086 93.3314 145.391 94.8863C147.003 96.0213 147.321 96.2256 154.043 101.106C156.535 102.759 158.934 104.548 161.23 106.463C166.51 111.23 167.123 114.023 167.259 115.464Z" fill="#D15883"/>
<path d="M14.0338 111.991C13.6702 113.49 13.7212 115.059 14.1814 116.531C14.5464 117.594 15.1328 118.568 15.902 119.387C16.6712 120.207 17.6057 120.855 18.6437 121.287C20.7879 121.947 23.0985 121.81 25.1496 120.901C26.3787 120.456 27.5552 119.877 28.6581 119.176C32.4504 116.985 35.2549 115.101 35.4706 114.953C40.1599 111.798 42.4989 110.22 43.2256 109.698C53.3081 102.559 65.5934 92.798 65.5934 92.798L91.095 72.89L88.6311 72.2317C84.6458 74.025 81.3644 75.3984 79.0141 76.3518C77.6062 76.9193 76.3231 77.4868 74.3475 78.2018C71.0888 79.4844 68.9883 80.2675 66.7175 81.1642C62.1758 82.9348 57.1004 85.307 46.8476 89.9718C42.4308 91.9808 40.5573 92.8548 38.0934 94.1373C36.379 95.034 36.0383 95.2723 28.817 99.3243C26.1812 100.696 23.6227 102.212 21.1529 103.864C15.3396 107.984 14.3631 110.606 14.0338 111.991Z" fill="#D15883"/>
<path d="M186.118 46.5352C187.441 47.3292 188.515 48.4772 189.218 49.8494C189.695 50.8356 189.953 51.9131 189.974 53.0081C189.996 54.1032 189.781 55.19 189.343 56.1941C188.264 58.1345 186.511 59.6123 184.415 60.3482C183.216 60.8622 181.963 61.2429 180.68 61.4832C176.433 62.5275 173.107 63.129 172.834 63.1744C167.27 64.1619 164.5 64.6499 163.614 64.7861C151.397 66.6702 135.774 68.1911 135.774 68.1911L103.585 71.5962L104.879 69.4623C109.001 68.1003 112.305 66.7837 114.678 65.8303L119.31 63.9462C122.546 62.6183 124.601 61.7443 126.849 60.8136C131.323 58.9976 136.637 57.1702 147.287 53.4474C151.829 51.8471 153.816 51.1774 156.473 50.3942C158.323 49.8494 158.743 49.77 166.691 47.7043C169.529 46.8592 172.409 46.1659 175.321 45.6272C182.372 44.5944 184.904 45.7521 186.118 46.5352Z" fill="#D15883"/>
<path d="M5.37052 44.163C4.06989 44.999 3.02489 46.1771 2.3503 47.568C1.89837 48.5765 1.65815 49.6669 1.64448 50.7718C1.63081 51.8768 1.84398 52.9728 2.27082 53.9921C3.29645 55.9389 5.00153 57.4414 7.0623 58.2144C8.22435 58.7506 9.44316 59.1542 10.6957 59.4175C14.8399 60.4844 18.0645 61.0859 18.337 61.1313C23.753 62.1301 26.4553 62.6409 27.3069 62.7771C39.1721 64.6952 54.3754 66.2616 54.3754 66.2616L85.713 69.746L84.4414 67.5782C80.4447 66.0913 77.2087 64.7974 74.9379 63.844C73.564 63.2765 72.3264 62.709 70.3962 61.9258C67.2511 60.5752 65.2527 59.6558 63.0614 58.7478C58.7127 56.8978 53.5352 55.0363 43.2142 51.2568C38.7633 49.6224 36.8558 48.9868 34.267 48.1469C32.4731 47.6021 32.0757 47.5226 24.2753 45.4115C21.5213 44.5608 18.7243 43.8561 15.8959 43.3004C9.08335 42.2335 6.55136 43.4139 5.37052 44.163Z" fill="#D15883"/>
<path d="M95.807 51.0751C95.0062 50.3655 94.093 49.794 93.1047 49.3839C92.3346 49.0754 91.5237 48.8804 90.6976 48.8051C90.174 48.7329 89.6429 48.7329 89.1193 48.8051C88.4044 48.9395 87.7268 49.2259 87.1323 49.645C86.9166 50.1557 86.5533 50.9956 86.0877 52.0285C85.4519 53.4359 85.0091 54.3666 84.9523 54.605C83.8319 57.5596 83.4159 60.7346 83.7374 63.878C83.8722 66.3051 84.4979 68.6797 85.5768 70.8583C85.9654 71.5417 86.4219 72.1844 86.9393 72.7764C87.3442 73.3083 87.8495 73.7557 88.4267 74.093C89.7097 74.7286 91.2085 74.2406 93.9108 73.3212C94.6148 73.0829 95.1825 72.8672 95.5231 72.7197C95.9736 72.9418 96.4361 73.1388 96.9083 73.3099C98.9294 74.0703 101.03 74.8535 102.858 74.0136C103.566 73.6528 104.186 73.1414 104.675 72.5154C105.177 71.8848 105.586 71.1853 105.89 70.4383C106.361 69.4851 106.741 68.4894 107.025 67.4646C107.382 66.049 107.588 64.5993 107.638 63.1402C107.758 61.8529 107.758 60.5572 107.638 59.2698C107.513 58.0253 107.247 56.7991 106.843 55.6151C106.593 54.8433 106.457 54.605 105.447 52.2101L104.527 49.9401L104.164 49.7017C103.026 49.0507 101.704 48.7953 100.405 48.9753C99.7085 49.0692 99.0282 49.2602 98.3844 49.5428C97.4524 49.9198 96.5833 50.4365 95.807 51.0751Z" fill="#D65883"/>
</svg>
