<svg width="464" height="464" viewBox="0 0 464 464" fill="none" xmlns="http://www.w3.org/2000/svg">
<path d="M254.518 87.4206C262.411 86.1784 269.671 86.1784 275.63 86.8164C278.598 87.2466 281.324 87.6526 283.63 88.2422C285.954 88.9237 287.994 89.3877 289.497 90.0257C292.562 91.2969 294.2 92.1331 294.123 92.4279C294.016 92.7227 292.189 92.3989 288.985 91.6062C287.375 91.2196 285.408 91.0166 283.18 90.6154C280.908 90.2577 278.26 90.0692 275.398 89.8711C269.608 89.6197 262.721 89.9146 255.229 91.3259C250.802 92.1959 246.162 93.5009 241.517 95.2989C243.759 97.0341 245.867 98.8997 247.906 100.838C248.109 101.07 248.341 101.273 248.544 101.505C248.588 101.548 248.651 101.626 248.699 101.674C249.071 101.428 249.501 101.196 249.922 100.959C255.417 98.0781 263.199 97.5464 268.54 97.5029C268.569 97.5029 268.617 97.5029 268.646 97.5029C270.304 97.5029 271.976 97.5802 273.634 97.7349C273.741 97.7494 273.866 97.7832 273.987 97.7832C275.49 97.9524 276.989 98.1844 278.492 98.4937C278.801 98.5711 279.081 98.6484 279.357 98.7257C280.628 99.0061 281.88 99.3637 283.137 99.7359C283.567 99.8906 283.987 100.045 284.422 100.2C285.505 100.558 286.539 100.993 287.578 101.457C287.888 101.582 288.197 101.674 288.506 101.8C288.69 101.892 288.879 102.017 289.062 102.095C290.116 102.607 291.17 103.163 292.189 103.752C292.591 103.97 293.055 104.187 293.461 104.434C294.727 105.198 295.95 105.985 297.173 106.855C298.086 107.493 298.985 108.189 299.865 108.905C300.208 109.137 300.503 109.354 300.812 109.615C301.803 110.408 302.745 111.215 303.688 112.066C303.876 112.206 304.046 112.394 304.215 112.549C305.239 113.463 306.211 114.41 307.173 115.372C307.25 115.435 307.313 115.478 307.356 115.526C311.117 119.311 314.553 123.405 317.792 127.595C318.376 128.354 318.981 129.132 319.57 129.92C319.614 129.983 319.677 130.046 319.725 130.123C319.817 130.278 319.957 130.418 320.049 130.606C321.475 132.496 322.818 134.405 324.181 136.344C324.428 136.73 324.708 137.088 324.969 137.446C326.255 139.355 327.555 141.293 328.841 143.231C329.256 143.869 329.691 144.536 330.126 145.184C331.378 147.107 332.649 149.017 333.901 150.955C335.448 153.376 336.999 155.778 338.56 158.2C338.609 158.277 338.652 158.355 338.701 158.432C340.276 160.82 354.332 183.812 356.98 183.812C357.024 183.812 357.087 183.812 357.135 183.778C358.479 183.251 359.716 182.632 360.973 181.951C357.41 176.103 354.1 170.67 351.05 165.677C347.275 159.858 343.867 154.599 340.789 149.887C337.661 145.218 334.66 141.216 332.122 137.537C329.522 133.97 327.415 130.713 325.249 128.122C316.955 117.619 314.026 113.385 314.399 113.028C314.819 112.675 318.425 116.305 327.386 126.416C329.677 128.915 331.934 132.076 334.66 135.648C337.338 139.244 340.465 143.202 343.713 147.871C346.84 152.617 350.339 157.842 354.206 163.662C357.367 168.611 360.649 174.039 364.177 179.887C366.217 178.442 368.121 176.876 369.934 175.184C366.251 167.059 357.816 159.703 353.22 151.979C348.019 143.246 343.297 134.357 337.71 125.889C326.472 108.765 316.844 92.2104 299.464 80.5331C280.937 68.0437 257.027 76.6857 237.51 82.9836C234.615 83.9309 231.782 85.1247 228.965 86.4249C231.952 88.2084 234.798 90.3351 237.553 92.3506C243.295 89.9484 249.071 88.3341 254.518 87.4206Z" fill="#E36588"/>
<path d="M149.659 96.2753C151.08 95.4536 153.033 94.7721 155.247 93.8248C157.455 92.9258 160.104 92.2105 163.014 91.4371C168.867 90.0693 176.064 89.2041 184.034 89.5135C192.004 89.8711 200.81 91.4516 209.399 95.0525C217.974 98.6195 225.388 104.004 230.637 110.253C231.797 111.882 233.189 113.342 234.131 115.048C235.108 116.72 236.021 118.335 236.935 119.949C238.404 122.975 239.719 126.324 240.4 129.253C241.874 135.164 242.058 140.036 242.135 143.357C242.213 146.692 242.029 148.538 241.749 148.553C241.439 148.553 241.038 146.755 240.511 143.511C239.893 140.297 239.255 135.551 237.476 130.06C236.625 127.286 235.432 124.632 233.764 121.5C232.865 120.104 231.923 118.615 231.009 117.141C230.096 115.604 228.747 114.333 227.631 112.858C222.667 107.257 215.76 102.375 207.746 99.0206C199.679 95.6421 191.385 93.994 183.802 93.4671C176.218 92.9886 169.312 93.501 163.618 94.429C160.8 95.0041 158.171 95.4875 155.986 96.0916C153.821 96.7876 151.887 97.2226 150.336 97.7978C147.228 98.9771 145.478 99.4895 145.324 99.2091C145.217 98.9433 146.75 97.938 149.659 96.2753ZM94.1533 177.122C97.3143 170.873 100.147 165.29 102.699 160.186C105.376 155.189 108.025 150.848 110.234 146.967C112.525 143.125 114.386 139.679 116.367 136.948C124.028 125.812 127.199 121.81 127.663 122.09C128.064 122.399 125.681 126.957 118.687 138.374C116.846 141.182 115.125 144.691 112.974 148.553C110.886 152.492 108.392 156.851 105.826 161.844C103.332 166.905 100.591 172.536 97.527 178.751C95.1006 184.058 92.4665 189.844 89.6196 196.098C90.9488 196.639 92.2683 197.089 93.6458 197.476C119.166 160.931 131.578 88.7063 191.429 102.65C219.119 109.074 236.302 129.688 234.117 158.838C233.455 167.91 231.72 177.045 228.839 185.764C230.018 188.046 231.285 190.264 232.619 192.434C233.377 190.791 234.088 189.288 234.644 187.935C235.494 185.687 236.224 183.904 236.809 182.507C237.988 179.747 238.636 178.582 238.902 178.63C239.148 178.708 238.979 180.027 238.235 182.99C237.848 184.445 237.321 186.354 236.654 188.698C236.055 190.559 235.2 192.681 234.272 195.088C236.408 198.375 238.713 201.555 241.116 204.692C243.407 199.805 245.586 194.856 247.554 189.8C256.809 165.832 264.084 134.869 247.351 112.206C236.331 97.2371 218.612 86.628 200.424 83.09C180.317 79.1363 155.537 73.4426 138.605 88.0393C122.757 101.708 115.173 119.311 106.058 137.649C101.505 146.721 97.8846 156.136 93.7666 165.397C90.0981 173.633 82.6258 181.951 79.9143 190.433C81.9298 191.922 84.0033 193.242 86.1831 194.421C89.001 188.2 91.6303 182.4 94.1533 177.122Z" fill="#E36588"/>
<path d="M213.222 186.045C213.967 187.408 214.895 189.085 216.026 191.211C217.186 193.319 218.795 195.74 220.545 198.669C224.088 204.518 229.182 211.888 236.07 221.178C242.493 229.849 250.758 240.023 259.966 252.778C261.667 251.072 263.17 249.178 264.499 247.036C254.813 231.71 241.874 218.974 231.086 204.489C221.874 192.139 215.992 177.282 213.068 162.231C210.144 147.402 212.681 134.251 219.477 123.641C217.447 121.423 215.233 119.374 212.807 117.696C212.232 118.615 211.613 119.514 211.178 120.476C210.438 122.056 209.709 123.608 208.998 125.145C207.698 128.465 206.813 131.21 206.306 134.096C205.204 139.741 205.146 144.536 204.928 147.794C204.74 151.08 204.605 152.941 204.261 152.941C203.981 152.941 203.594 151.143 203.271 147.837C202.961 144.536 202.56 139.664 203.319 133.613C203.628 130.635 204.542 127.131 205.639 123.951C206.349 122.259 207.094 120.553 207.824 118.769C208.254 117.696 208.872 116.706 209.51 115.681C209.477 115.681 209.448 115.652 209.433 115.652C205.919 113.897 202.314 112.394 198.66 110.935C197.113 113.061 195.658 115.246 194.372 117.513C180.472 142.003 191.352 171.897 203.425 194.59C215.915 218.138 232.894 239.018 249.733 259.526C252.488 258.409 254.934 257.012 257.119 255.321C247.877 242.537 239.583 232.193 233.218 223.256C226.456 213.793 221.521 206.146 218.191 200.052C216.582 196.997 215.156 194.421 214.107 192.202C213.16 189.955 212.401 188.123 211.879 186.712C210.777 183.855 210.438 182.584 210.67 182.463C210.931 182.4 211.724 183.468 213.222 186.045Z" fill="#E36588"/>
<path d="M124.395 274.243C119.91 276.385 116.116 278.806 112.095 281.643C110.64 282.639 108.735 281.846 108.426 280.111C106.522 268.274 101.582 245.611 84.6219 257.259C74.9021 265.403 71.2191 276.665 70.9387 289.043C70.7067 298.12 69.1746 311.537 74.4187 319.604C77.2849 323.978 81.7267 327.265 83.1042 332.572C83.6601 334.617 96.6907 331.654 98.5806 331.33C112.573 328.802 130.635 324.674 138.731 311.489C143.081 304.37 145.014 296.134 143.313 287.82C141.733 280.295 138.219 267.747 124.395 274.243Z" fill="#E36588"/>
<path d="M198.336 254.33C204.184 243.764 209.646 234.813 214.291 226.964C212.836 224.977 211.415 222.933 209.989 220.883C203.952 230.052 197.901 239.202 193.164 249.149C194.745 251.13 196.446 252.822 198.336 254.33Z" fill="#E36588"/>
<path d="M373.215 242.087C354.999 232.517 352.799 255.664 352.321 267.622C352.229 269.376 350.417 270.367 348.851 269.574C344.534 267.235 340.465 265.297 335.728 263.712C321.257 258.888 319.246 271.778 318.594 279.425C317.883 287.898 320.793 295.824 325.96 302.383C335.559 314.515 353.974 316.453 368.198 317.275C370.088 317.4 383.399 318.778 383.694 316.656C384.545 310.464 390.084 305.486 392.114 299.652C394.666 292.378 391.664 279.396 390.596 271.996C388.846 259.758 383.815 248.994 373.215 242.087Z" fill="#E36588"/>
<path d="M386.773 175.929C384.545 175.262 382.268 174.595 380.026 173.961C379.837 174.039 379.702 174.082 379.499 174.145C379.373 174.16 379.189 174.222 379.035 174.271C379.421 175.436 379.218 176.799 378.107 177.949C372.766 183.328 366.821 187.983 359.827 190.931C359.237 191.429 358.667 191.999 358.092 192.483C354.332 195.803 351.238 198.22 348.681 199.805C347.381 200.593 346.313 201.275 345.371 201.743C344.409 202.193 343.621 202.531 343.002 202.749C341.765 203.218 341.146 203.295 341.021 203.063C340.9 202.812 341.286 202.299 342.277 201.463C342.722 201.028 343.389 200.53 344.211 199.926C345.013 199.293 345.96 198.515 347.106 197.601C348.947 196.098 351.253 194.063 353.974 191.506C353.742 191.347 353.51 191.178 353.278 190.946C352.674 190.264 352.074 189.563 351.436 188.882C339.614 198.036 326.796 205.745 314.51 214.213C300.222 224.078 286.694 234.968 272.237 244.697C272.875 245.611 273.107 246.805 272.624 248.076C289.463 237.496 295.365 234.581 295.843 235.325C296.448 236.162 289.869 241.377 267.501 255.833C263.17 260.937 257.675 264.63 251.034 267.201C249.704 268.535 247.597 268.893 246.05 267.003C245.741 266.645 245.383 266.239 245.074 265.838C244.518 266.413 244.006 267.032 243.484 267.636C244.194 270.319 244.721 272.354 245.383 274.959C271.092 265.606 295.655 249.332 317.912 233.788C342.553 216.635 365.226 196.794 386.773 175.929Z" fill="#E36588"/>
<path d="M387.827 319.928C387.672 321.185 386.879 322.195 385.502 322.195C361.248 322.118 330.436 322.224 317.463 297.637C312.248 287.743 312.649 273.688 318.454 264.258C324.863 253.784 338.884 259.323 347.942 263.915C349.271 247.114 355.216 227.447 375.55 238.085C388.629 246.65 393.414 259.589 395.579 274.635C396.633 281.924 397.3 289.555 397.141 296.892C396.942 305.844 388.987 311.228 387.827 319.928ZM424.043 243.61C425.435 245.021 426.938 246.853 428.746 248.975C432.385 253.228 436.701 259.12 442.12 266.723C446.653 273.127 451.902 280.822 458.973 288.995C459.689 288.376 460.351 287.743 461.066 287.105C452.028 267.39 437.678 249.303 425.406 231.478C413.269 213.856 397.546 199.525 389.837 179.375C369.083 199.37 347.304 218.138 323.998 235.079C301.01 251.797 275.055 268.738 248.216 278.792C260.831 298.632 273.151 319.092 287.501 337.705C300.068 353.979 313.64 369.707 322.403 388.46C324.181 387.281 325.979 386.116 327.758 384.936C321.784 379.122 318.222 372.437 314.756 366.681C312.852 363.36 311.025 360.243 309.14 357.391C307.202 354.535 305.346 351.804 303.611 349.199C296.617 338.851 291.199 330.74 287.255 324.409C279.28 311.784 276.558 306.82 276.989 306.54C277.457 306.279 280.966 310.716 289.512 322.905C293.736 328.986 299.338 336.99 306.506 347.198C308.304 349.788 310.174 352.471 312.156 355.356C314.152 358.29 316.056 361.471 317.99 364.757C321.552 370.731 325.375 377.493 331.132 382.815C351.963 369.644 373.723 358.024 393.907 343.848C416.102 328.29 436.179 309.846 456.141 291.585C448.867 283.117 443.652 275.239 439.21 268.738C433.98 261.029 429.939 255.041 426.629 250.652C424.971 248.462 423.627 246.558 422.433 245.021C421.182 243.561 420.22 242.339 419.475 241.377C418.006 239.405 417.465 238.457 417.648 238.288C417.822 238.085 418.716 238.689 420.577 240.352C421.457 241.174 422.636 242.261 424.043 243.61Z" fill="#E36588"/>
<path d="M201.458 256.515C203.86 257.926 206.446 259.028 209.308 259.821C213.827 252.701 218.36 245.533 222.759 238.288C220.729 235.635 218.67 232.952 216.63 230.207C212.203 237.887 207.017 246.524 201.458 256.515Z" fill="#E36588"/>
<path d="M141.655 272.711C148.528 281.397 150.602 295.293 146.595 305.752C136.638 331.717 106.043 335.284 81.9878 338.295C80.6103 338.449 79.7161 337.517 79.3874 336.308C77.2994 328.241 69.5323 323.403 67.1929 315.414C64.0658 304.679 65.4916 291.03 67.3766 280.111C69.0054 270.493 73.4618 259.323 81.8331 253.581C100.765 240.584 109.011 259.4 112.312 275.906C120.761 270.275 134.023 263.107 141.655 272.711ZM60.6631 196.997C55.4141 217.906 41.4989 234.02 31.5471 252.977C21.4889 272.136 9.38627 291.822 2.75977 312.48C3.5476 313.012 4.29193 313.553 5.07977 314.109C11.1311 305.162 15.3893 296.878 19.1496 289.957C23.6059 281.769 27.2164 275.394 30.2953 270.754C31.8709 268.429 33.1421 266.442 34.3504 264.891C35.5878 263.354 36.6076 262.131 37.4003 261.218C39.0533 259.352 39.8749 258.641 40.0586 258.811C40.2471 258.965 39.8749 259.961 38.6231 262.083C37.9851 263.122 37.1973 264.47 36.1291 266.085C35.1093 267.747 34.0073 269.806 32.6153 272.151C29.8313 276.931 26.5639 283.349 22.2768 291.648C18.6421 298.599 14.4129 307.052 8.17793 316.327C30.2034 332.089 52.3353 347.99 76.2023 360.784C97.9329 372.466 120.944 381.369 143.187 391.95C148.248 385.976 151.22 378.813 154.053 372.466C155.599 368.977 157.103 365.579 158.741 362.447C160.37 359.329 161.917 356.429 163.371 353.65C169.268 342.654 173.879 334.027 177.364 327.497C184.387 314.36 187.359 309.551 187.843 309.754C188.307 309.986 186.199 315.23 179.776 328.725C176.634 335.487 172.192 344.187 166.499 355.279C165.073 358.087 163.57 361.021 161.994 364.105C160.462 367.164 159.021 370.451 157.489 373.97C154.763 380.113 152.028 387.189 146.75 393.656C148.683 394.603 150.616 395.55 152.521 396.512C158.992 376.855 170.568 359.61 181.11 341.939C193.164 321.741 202.932 299.966 213.116 278.743C185.286 271.996 157.455 258.284 132.68 244.431C107.479 230.41 83.6311 214.368 60.6631 196.997Z" fill="#E36588"/>
<path d="M213.856 266.8C212.541 268.864 210.39 268.738 208.921 267.593C202.019 265.838 196.151 262.798 191.216 258.255C167.287 246.602 160.153 242.213 160.646 241.299C161.032 240.507 167.238 242.677 185.223 251.193C184.59 249.97 184.696 248.777 185.209 247.752C169.698 239.84 154.937 230.656 139.596 222.575C126.363 215.639 112.728 209.515 99.8954 201.835C99.3686 202.609 98.8611 203.372 98.3197 204.117C98.1167 204.363 97.9137 204.566 97.7156 204.75C100.717 206.968 103.255 208.708 105.27 209.979C106.488 210.738 107.542 211.405 108.392 211.932C109.291 212.444 110.002 212.865 110.514 213.237C111.597 213.952 112.032 214.383 111.94 214.663C111.863 214.895 111.259 214.895 109.958 214.586C109.291 214.46 108.47 214.213 107.479 213.87C106.459 213.517 105.347 212.991 103.97 212.353C101.215 211.067 97.8702 209.032 93.7377 206.195C93.1336 205.789 92.4666 205.31 91.8334 204.875C84.5592 202.812 78.0874 198.887 72.1279 194.155C70.8906 193.164 70.5377 191.845 70.7842 190.636C70.6151 190.622 70.4266 190.588 70.3057 190.559C70.1027 190.545 69.9481 190.496 69.7451 190.433C67.6087 191.347 65.4434 192.294 63.2781 193.193C87.1741 211.328 112.032 228.312 138.562 242.416C162.502 255.195 188.814 268.381 215.47 274.601C215.808 271.948 216.089 269.855 216.475 267.124C215.886 266.597 215.311 266.041 214.677 265.529C214.416 265.93 214.107 266.394 213.856 266.8Z" fill="#E36588"/>
</svg>
