<svg width="24" height="6" viewBox="0 0 24 6" fill="none" xmlns="http://www.w3.org/2000/svg">
<path d="M12 0.5C11.5055 0.5 11.0222 0.646623 10.6111 0.921326C10.2 1.19603 9.87952 1.58648 9.6903 2.04329C9.50108 2.50011 9.45157 3.00277 9.54804 3.48773C9.6445 3.97268 9.8826 4.41814 10.2322 4.76777C10.5819 5.1174 11.0273 5.3555 11.5123 5.45196C11.9972 5.54843 12.4999 5.49892 12.9567 5.3097C13.4135 5.12048 13.804 4.80005 14.0787 4.38893C14.3534 3.9778 14.5 3.49445 14.5 3C14.5 2.33696 14.2366 1.70107 13.7678 1.23223C13.2989 0.763393 12.663 0.5 12 0.5ZM3.25 0.5C2.75555 0.5 2.2722 0.646623 1.86108 0.921326C1.44995 1.19603 1.12952 1.58648 0.940302 2.04329C0.751083 2.50011 0.701575 3.00277 0.798038 3.48773C0.894501 3.97268 1.1326 4.41814 1.48223 4.76777C1.83187 5.1174 2.27732 5.3555 2.76228 5.45196C3.24723 5.54843 3.74989 5.49892 4.20671 5.3097C4.66353 5.12048 5.05397 4.80005 5.32868 4.38893C5.60338 3.9778 5.75 3.49445 5.75 3C5.75 2.33696 5.48661 1.70107 5.01777 1.23223C4.54893 0.763393 3.91304 0.5 3.25 0.5ZM20.75 0.5C20.2555 0.5 19.7722 0.646623 19.3611 0.921326C18.95 1.19603 18.6295 1.58648 18.4403 2.04329C18.2511 2.50011 18.2016 3.00277 18.298 3.48773C18.3945 3.97268 18.6326 4.41814 18.9822 4.76777C19.3319 5.1174 19.7773 5.3555 20.2623 5.45196C20.7472 5.54843 21.2499 5.49892 21.7067 5.3097C22.1635 5.12048 22.554 4.80005 22.8287 4.38893C23.1034 3.9778 23.25 3.49445 23.25 3C23.25 2.33696 22.9866 1.70107 22.5178 1.23223C22.0489 0.763393 21.413 0.5 20.75 0.5Z" fill="#3C0F74"/>
</svg>
