<svg width="1792" height="756" viewBox="0 0 1792 756" fill="none" xmlns="http://www.w3.org/2000/svg">
<circle cx="60" cy="60" r="60" fill="#6D4B97"/>
<path d="M75 47.5H74.125C74.6955 46.3319 74.9947 45.0499 75 43.75C75.0076 42.0083 74.4937 40.3042 73.5245 38.857C72.5554 37.4099 71.1753 36.2859 69.5619 35.6298C67.9485 34.9737 66.1756 34.8155 64.4715 35.1755C62.7675 35.5355 61.2101 36.3973 60 37.65C58.7899 36.3973 57.2325 35.5355 55.5285 35.1755C53.8244 34.8155 52.0515 34.9737 50.4381 35.6298C48.8247 36.2859 47.4446 37.4099 46.4755 38.857C45.5063 40.3042 44.9924 42.0083 45 43.75C45.0053 45.0499 45.3045 46.3319 45.875 47.5H45C43.0109 47.5 41.1032 48.2901 39.6967 49.6967C38.2902 51.1032 37.5 53.0108 37.5 55V60C37.5 60.663 37.7634 61.2989 38.2322 61.7677C38.7011 62.2366 39.337 62.5 40 62.5H42.5V77.5C42.5 79.4891 43.2902 81.3967 44.6967 82.8033C46.1032 84.2098 48.0109 85 50 85H70C71.9891 85 73.8968 84.2098 75.3033 82.8033C76.7098 81.3967 77.5 79.4891 77.5 77.5V62.5H80C80.663 62.5 81.2989 62.2366 81.7678 61.7677C82.2366 61.2989 82.5 60.663 82.5 60V55C82.5 53.0108 81.7098 51.1032 80.3033 49.6967C78.8968 48.2901 76.9891 47.5 75 47.5ZM57.5 80H50C49.337 80 48.7011 79.7366 48.2322 79.2677C47.7634 78.7989 47.5 78.163 47.5 77.5V62.5H57.5V80ZM57.5 57.5H42.5V55C42.5 54.3369 42.7634 53.701 43.2322 53.2322C43.7011 52.7634 44.337 52.5 45 52.5H57.5V57.5ZM57.5 47.5H53.75C53.0083 47.5 52.2833 47.28 51.6666 46.868C51.0499 46.4559 50.5693 45.8703 50.2855 45.185C50.0016 44.4998 49.9274 43.7458 50.0721 43.0184C50.2167 42.291 50.5739 41.6228 51.0983 41.0983C51.6228 40.5739 52.291 40.2167 53.0184 40.072C53.7458 39.9273 54.4998 40.0016 55.1851 40.2854C55.8703 40.5693 56.456 41.0499 56.868 41.6666C57.2801 42.2833 57.5 43.0083 57.5 43.75V47.5ZM62.5 43.75C62.5 43.0083 62.7199 42.2833 63.132 41.6666C63.544 41.0499 64.1297 40.5693 64.8149 40.2854C65.5002 40.0016 66.2542 39.9273 66.9816 40.072C67.709 40.2167 68.3772 40.5739 68.9017 41.0983C69.4261 41.6228 69.7833 42.291 69.9279 43.0184C70.0726 43.7458 69.9984 44.4998 69.7145 45.185C69.4307 45.8703 68.9501 46.4559 68.3334 46.868C67.7167 47.28 66.9917 47.5 66.25 47.5H62.5V43.75ZM72.5 77.5C72.5 78.163 72.2366 78.7989 71.7678 79.2677C71.2989 79.7366 70.663 80 70 80H62.5V62.5H72.5V77.5ZM77.5 57.5H62.5V52.5H75C75.663 52.5 76.2989 52.7634 76.7678 53.2322C77.2366 53.701 77.5 54.3369 77.5 55V57.5Z" fill="#F0FFF9"/>
<path d="M62 113L62 189C62 202.255 72.134 213 85.3888 213C272.452 213 1522.28 213 1708.75 213C1722 213 1732 223.745 1732 237V310" stroke="#6D4B97" stroke-width="6"/>
<path d="M60 638L60 549C60 535.745 70.7452 525 84.0001 525H1706C1719.25 525 1730 514.255 1730 501V428" stroke="#6D4B97" stroke-width="6"/>
<circle cx="60" cy="696" r="60" fill="#6D4B97"/>
<path d="M79.075 675.125C78.7846 674.89 78.4452 674.723 78.0818 674.637C77.7183 674.55 77.3402 674.546 76.975 674.625C74.3036 675.185 71.5459 675.192 68.8716 674.646C66.1973 674.1 63.6631 673.012 61.425 671.45C61.0065 671.16 60.5093 671.004 60 671.004C59.4907 671.004 58.9935 671.16 58.575 671.45C56.3369 673.012 53.8027 674.1 51.1284 674.646C48.4542 675.192 45.6964 675.185 43.025 674.625C42.6599 674.546 42.2817 674.55 41.9183 674.637C41.5549 674.723 41.2155 674.89 40.925 675.125C40.635 675.36 40.4013 675.658 40.2412 675.995C40.0812 676.332 39.9987 676.701 40 677.075V695.7C39.9978 699.284 40.8519 702.817 42.4914 706.005C44.1308 709.192 46.508 711.942 49.425 714.025L58.55 720.525C58.9734 720.826 59.4803 720.988 60 720.988C60.5198 720.988 61.0266 720.826 61.45 720.525L70.575 714.025C73.4921 711.942 75.8693 709.192 77.5087 706.005C79.1481 702.817 80.0022 699.284 80 695.7V677.075C80.0013 676.701 79.9189 676.332 79.7588 675.995C79.5987 675.658 79.3651 675.36 79.075 675.125ZM75 695.7C75.0019 698.487 74.3382 701.234 73.0641 703.713C71.7901 706.191 69.9424 708.33 67.675 709.95L60 715.425L52.325 709.95C50.0576 708.33 48.21 706.191 46.9359 703.713C45.6618 701.234 44.9981 698.487 45 695.7V679.95C50.2411 680.399 55.4901 679.183 60 676.475C64.5099 679.183 69.7589 680.399 75 679.95V695.7ZM63.85 689.975L57.125 696.725L54.9 694.475C54.4293 694.004 53.7908 693.74 53.125 693.74C52.4593 693.74 51.8208 694.004 51.35 694.475C50.8793 694.946 50.6148 695.584 50.6148 696.25C50.6148 696.916 50.8793 697.554 51.35 698.025L55.35 702.025C55.5824 702.259 55.8589 702.445 56.1636 702.572C56.4682 702.699 56.795 702.764 57.125 702.764C57.455 702.764 57.7818 702.699 58.0865 702.572C58.3911 702.445 58.6676 702.259 58.9 702.025L67.5 693.5C67.9708 693.029 68.2352 692.391 68.2352 691.725C68.2352 691.059 67.9708 690.421 67.5 689.95C67.0293 689.479 66.3908 689.215 65.725 689.215C65.0593 689.215 64.4208 689.479 63.95 689.95L63.85 689.975Z" fill="#F0FFF9"/>
<circle cx="1732" cy="369" r="60" fill="#6D4B97"/>
<path d="M1749.5 356.5H1747V354C1747 352.011 1746.21 350.103 1744.8 348.697C1743.4 347.29 1741.49 346.5 1739.5 346.5H1714.5C1712.51 346.5 1710.6 347.29 1709.2 348.697C1707.79 350.103 1707 352.011 1707 354V354V384C1707 385.989 1707.79 387.897 1709.2 389.303C1710.6 390.71 1712.51 391.5 1714.5 391.5H1749.5C1751.49 391.5 1753.4 390.71 1754.8 389.303C1756.21 387.897 1757 385.989 1757 384V364C1757 362.011 1756.21 360.103 1754.8 358.697C1753.4 357.29 1751.49 356.5 1749.5 356.5ZM1714.5 351.5H1739.5C1740.16 351.5 1740.8 351.763 1741.27 352.232C1741.74 352.701 1742 353.337 1742 354V356.5H1714.5C1713.84 356.5 1713.2 356.237 1712.73 355.768C1712.26 355.299 1712 354.663 1712 354C1712 353.337 1712.26 352.701 1712.73 352.232C1713.2 351.763 1713.84 351.5 1714.5 351.5V351.5ZM1752 376.5H1749.5C1748.84 376.5 1748.2 376.237 1747.73 375.768C1747.26 375.299 1747 374.663 1747 374C1747 373.337 1747.26 372.701 1747.73 372.232C1748.2 371.763 1748.84 371.5 1749.5 371.5H1752V376.5ZM1752 366.5H1749.5C1747.51 366.5 1745.6 367.29 1744.2 368.697C1742.79 370.103 1742 372.011 1742 374C1742 375.989 1742.79 377.897 1744.2 379.303C1745.6 380.71 1747.51 381.5 1749.5 381.5H1752V384C1752 384.663 1751.74 385.299 1751.27 385.768C1750.8 386.237 1750.16 386.5 1749.5 386.5H1714.5C1713.84 386.5 1713.2 386.237 1712.73 385.768C1712.26 385.299 1712 384.663 1712 384V361.075C1712.8 361.358 1713.65 361.501 1714.5 361.5H1749.5C1750.16 361.5 1750.8 361.763 1751.27 362.232C1751.74 362.701 1752 363.337 1752 364V366.5Z" fill="#F0FFF9"/>
</svg>
