<svg width="106" height="105" viewBox="0 0 106 105" fill="none" xmlns="http://www.w3.org/2000/svg">
<path d="M85 60.0005C83.6739 60.0005 82.4021 60.5272 81.4645 61.4649C80.5268 62.4026 80 63.6744 80 65.0005V66.9005L72.6 59.5005C69.9871 56.9082 66.4556 55.4536 62.775 55.4536C59.0944 55.4536 55.5629 56.9082 52.95 59.5005L49.45 63.0005L37.05 50.6005C34.4006 48.0785 30.8828 46.6719 27.225 46.6719C23.5672 46.6719 20.0494 48.0785 17.4 50.6005L10 58.0005V30.0005C10 28.6744 10.5268 27.4026 11.4645 26.4649C12.4021 25.5272 13.6739 25.0005 15 25.0005H50C51.3261 25.0005 52.5979 24.4737 53.5355 23.536C54.4732 22.5983 55 21.3265 55 20.0005C55 18.6744 54.4732 17.4026 53.5355 16.4649C52.5979 15.5272 51.3261 15.0005 50 15.0005H15C11.0218 15.0005 7.20644 16.5808 4.3934 19.3939C1.58035 22.2069 0 26.0222 0 30.0005V90.0005C0 93.9787 1.58035 97.794 4.3934 100.607C7.20644 103.42 11.0218 105 15 105H75C78.9782 105 82.7936 103.42 85.6066 100.607C88.4196 97.794 90 93.9787 90 90.0005V65.0005C90 63.6744 89.4732 62.4026 88.5355 61.4649C87.5979 60.5272 86.3261 60.0005 85 60.0005ZM15 95.0005C13.6739 95.0005 12.4021 94.4737 11.4645 93.536C10.5268 92.5983 10 91.3265 10 90.0005V72.1505L24.5 57.6505C25.2346 56.9505 26.2103 56.56 27.225 56.56C28.2397 56.56 29.2154 56.9505 29.95 57.6505L45.8 73.5005L67.3 95.0005H15ZM80 90.0005C79.9928 90.9576 79.6772 91.8869 79.1 92.6505L56.55 70.0005L60.05 66.5005C60.4085 66.1346 60.8363 65.8439 61.3085 65.6455C61.7807 65.4471 62.2878 65.3449 62.8 65.3449C63.3122 65.3449 63.8193 65.4471 64.2915 65.6455C64.7637 65.8439 65.1915 66.1346 65.55 66.5005L80 81.0505V90.0005ZM103.55 16.4505L88.55 1.45046C88.0745 0.995255 87.5138 0.63843 86.9 0.400458C85.6827 -0.0996319 84.3173 -0.0996319 83.1 0.400458C82.4862 0.63843 81.9255 0.995255 81.45 1.45046L66.45 16.4505C65.9838 16.9167 65.614 17.4701 65.3617 18.0792C65.1094 18.6883 64.9795 19.3412 64.9795 20.0005C64.9795 21.332 65.5085 22.6089 66.45 23.5505C67.3915 24.492 68.6685 25.0209 70 25.0209C71.3315 25.0209 72.6085 24.492 73.55 23.5505L80 17.0505V45.0005C80 46.3265 80.5268 47.5983 81.4645 48.536C82.4021 49.4737 83.6739 50.0005 85 50.0005C86.3261 50.0005 87.5979 49.4737 88.5355 48.536C89.4732 47.5983 90 46.3265 90 45.0005V17.0505L96.45 23.5505C96.9148 24.0191 97.4678 24.3911 98.0771 24.6449C98.6864 24.8988 99.3399 25.0294 100 25.0294C100.66 25.0294 101.314 24.8988 101.923 24.6449C102.532 24.3911 103.085 24.0191 103.55 23.5505C104.019 23.0856 104.391 22.5326 104.644 21.9233C104.898 21.314 105.029 20.6605 105.029 20.0005C105.029 19.3404 104.898 18.6869 104.644 18.0776C104.391 17.4683 104.019 16.9153 103.55 16.4505Z" fill="#3C0F74"/>
</svg>
