<svg width="38" height="38" viewBox="0 0 38 38" fill="none" xmlns="http://www.w3.org/2000/svg">
<g clip-path="url(#clip0_56_136)">
<path d="M26.125 0H11.875C8.72555 0 5.7051 1.25111 3.47811 3.47811C1.25111 5.7051 0 8.72555 0 11.875L0 26.125C0 29.2744 1.25111 32.2949 3.47811 34.5219C5.7051 36.7489 8.72555 38 11.875 38H26.125C29.2744 38 32.2949 36.7489 34.5219 34.5219C36.7489 32.2949 38 29.2744 38 26.125V11.875C38 8.72555 36.7489 5.7051 34.5219 3.47811C32.2949 1.25111 29.2744 0 26.125 0V0ZM34.4375 26.125C34.4375 30.7087 30.7087 34.4375 26.125 34.4375H11.875C7.29125 34.4375 3.5625 30.7087 3.5625 26.125V11.875C3.5625 7.29125 7.29125 3.5625 11.875 3.5625H26.125C30.7087 3.5625 34.4375 7.29125 34.4375 11.875V26.125Z" fill="black"/>
<path d="M19 9.5C16.4804 9.5 14.0641 10.5009 12.2825 12.2825C10.5009 14.0641 9.5 16.4804 9.5 19C9.5 21.5196 10.5009 23.9359 12.2825 25.7175C14.0641 27.4991 16.4804 28.5 19 28.5C21.5196 28.5 23.9359 27.4991 25.7175 25.7175C27.4991 23.9359 28.5 21.5196 28.5 19C28.5 16.4804 27.4991 14.0641 25.7175 12.2825C23.9359 10.5009 21.5196 9.5 19 9.5ZM19 24.9375C17.4259 24.9356 15.9167 24.3095 14.8036 23.1964C13.6905 22.0833 13.0644 20.5741 13.0625 19C13.0625 15.7249 15.7273 13.0625 19 13.0625C22.2727 13.0625 24.9375 15.7249 24.9375 19C24.9375 22.2727 22.2727 24.9375 19 24.9375Z" fill="black"/>
<path d="M29.2125 10.0535C29.9116 10.0535 30.4784 9.48673 30.4784 8.7876C30.4784 8.08848 29.9116 7.52173 29.2125 7.52173C28.5134 7.52173 27.9466 8.08848 27.9466 8.7876C27.9466 9.48673 28.5134 10.0535 29.2125 10.0535Z" fill="black"/>
</g>
<defs>
<clipPath id="clip0_56_136">
<rect width="38" height="38" fill="white"/>
</clipPath>
</defs>
</svg>
