<svg width="38" height="38" viewBox="0 0 38 38" fill="none" xmlns="http://www.w3.org/2000/svg">
<path d="M0 11.875H8.49775V38H0V11.875ZM31.6445 12.1814C31.5543 12.1529 31.4688 12.122 31.3738 12.0959C31.2597 12.0701 31.1448 12.0479 31.0294 12.0294C30.5276 11.9268 30.0168 11.8751 29.5046 11.875C24.5504 11.875 21.4083 15.4779 20.3727 16.8696V11.875H11.875V38H20.3727V23.75C20.3727 23.75 26.7948 14.8057 29.5046 21.375V38H38V20.3704C37.9965 18.4945 37.3706 16.6727 36.2204 15.1908C35.0703 13.7088 33.4609 12.6504 31.6445 12.1814Z" fill="black"/>
<path d="M4.15625 8.3125C6.45168 8.3125 8.3125 6.45168 8.3125 4.15625C8.3125 1.86082 6.45168 0 4.15625 0C1.86082 0 0 1.86082 0 4.15625C0 6.45168 1.86082 8.3125 4.15625 8.3125Z" fill="black"/>
</svg>
