<svg width="38" height="27" viewBox="0 0 38 27" fill="none" xmlns="http://www.w3.org/2000/svg">
<path d="M20.8443 1.15955C21.4907 1.05782 22.0852 1.05782 22.5733 1.11007C22.8163 1.1453 23.0396 1.17855 23.2284 1.22684C23.4188 1.28265 23.5858 1.32065 23.7089 1.3729C23.9599 1.47701 24.0941 1.54549 24.0877 1.56963C24.079 1.59378 23.9294 1.56726 23.667 1.50234C23.5351 1.47067 23.374 1.45405 23.1916 1.42119C23.0055 1.3919 22.7886 1.37647 22.5543 1.36024C22.0801 1.33965 21.516 1.3638 20.9025 1.47938C20.5399 1.55063 20.1599 1.65751 19.7795 1.80476C19.9631 1.94686 20.1357 2.09965 20.3028 2.25838C20.3194 2.27738 20.3384 2.29401 20.355 2.31301C20.3586 2.31657 20.3637 2.3229 20.3677 2.32686C20.3982 2.30667 20.4334 2.28767 20.4678 2.26828C20.9179 2.03236 21.5552 1.98882 21.9926 1.98526C21.995 1.98526 21.9989 1.98526 22.0013 1.98526C22.1371 1.98526 22.274 1.99159 22.4098 2.00426C22.4185 2.00544 22.4288 2.00821 22.4387 2.00821C22.5618 2.02207 22.6845 2.04107 22.8076 2.0664C22.8329 2.07274 22.8559 2.07907 22.8785 2.0854C22.9826 2.10836 23.0851 2.13765 23.188 2.16813C23.2232 2.1808 23.2577 2.19346 23.2933 2.20613C23.382 2.23542 23.4667 2.27105 23.5518 2.30905C23.5771 2.31934 23.6024 2.32686 23.6278 2.33715C23.6428 2.34467 23.6583 2.35496 23.6733 2.3613C23.7596 2.40326 23.8459 2.44878 23.9294 2.49707C23.9623 2.51488 24.0003 2.53269 24.0335 2.55288C24.1372 2.61542 24.2374 2.67994 24.3375 2.75119C24.4123 2.80344 24.4859 2.86044 24.558 2.91903C24.5861 2.93803 24.6102 2.95584 24.6356 2.97722C24.7167 3.04213 24.7939 3.10824 24.8711 3.1779C24.8865 3.18938 24.9004 3.20482 24.9142 3.21749C24.9981 3.2923 25.0777 3.36988 25.1565 3.44865C25.1628 3.4538 25.168 3.45736 25.1715 3.46132C25.4795 3.77126 25.7609 4.1065 26.0261 4.4497C26.074 4.5119 26.1235 4.5756 26.1718 4.6401C26.1754 4.6453 26.1805 4.6504 26.1845 4.6567C26.192 4.6694 26.2035 4.6809 26.211 4.6963C26.3278 4.8511 26.4378 5.0074 26.5494 5.1662C26.5696 5.1978 26.5926 5.2271 26.6139 5.2564C26.7192 5.4128 26.8257 5.5715 26.931 5.7302C26.965 5.7825 27.0007 5.8371 27.0363 5.8902C27.1388 6.0477 27.2429 6.204 27.3454 6.3628C27.4721 6.5611 27.5992 6.7578 27.727 6.9561C27.731 6.9625 27.7345 6.9688 27.7385 6.9751C27.8675 7.1707 29.0186 9.0537 29.2355 9.0537C29.2391 9.0537 29.2443 9.0537 29.2482 9.0509C29.3583 9.0077 29.4596 8.9571 29.5625 8.9013C29.2708 8.4223 28.9996 7.9774 28.7499 7.5685C28.4407 7.0919 28.1616 6.6612 27.9095 6.2753C27.6534 5.8929 27.4076 5.5652 27.1998 5.2639C26.9868 4.9718 26.8142 4.705 26.6369 4.4929C25.9576 3.63271 25.7178 3.28596 25.7483 3.25667C25.7827 3.22778 26.078 3.52505 26.8119 4.3531C26.9995 4.5578 27.1843 4.8167 27.4076 5.1092C27.6269 5.4037 27.883 5.7279 28.149 6.1102C28.4051 6.4989 28.6917 6.9268 29.0083 7.4034C29.2672 7.8088 29.536 8.2533 29.8249 8.7322C29.992 8.6139 30.1479 8.4856 30.2964 8.3471C29.9948 7.6817 29.304 7.0792 28.9276 6.4467C28.5017 5.7314 28.1149 5.0035 27.6574 4.31C26.737 2.90755 25.9485 1.55182 24.5251 0.595491C23.0079 -0.427349 21.0497 0.280401 19.4513 0.796171C19.2142 0.873761 18.9823 0.971531 18.7515 1.07801C18.9961 1.22407 19.2293 1.39824 19.4549 1.5633C19.9251 1.36657 20.3982 1.23436 20.8443 1.15955Z" fill="url(#paint0_linear_201_68)"/>
<path d="M12.2567 1.8846C12.3731 1.81731 12.533 1.76149 12.7143 1.68391C12.8952 1.61028 13.1121 1.5517 13.3504 1.48837C13.8297 1.37635 14.4191 1.30549 15.0718 1.33083C15.7246 1.36012 16.4458 1.48956 17.1492 1.78445C17.8514 2.07658 18.4586 2.51753 18.8885 3.02935C18.9835 3.16274 19.0975 3.28228 19.1747 3.42201C19.2546 3.55897 19.3294 3.69118 19.4042 3.82339C19.5246 4.0712 19.6322 4.3455 19.6881 4.5854C19.8088 5.0695 19.8238 5.4685 19.8302 5.7404C19.8365 6.0135 19.8215 6.1647 19.7985 6.1659C19.7732 6.1659 19.7403 6.0187 19.6972 5.7531C19.6465 5.4898 19.5942 5.1011 19.4486 4.6515C19.3789 4.4243 19.2811 4.207 19.1446 3.95045C19.071 3.83606 18.9938 3.71414 18.919 3.59341C18.8441 3.46753 18.7337 3.36343 18.6423 3.2427C18.2357 2.78393 17.6701 2.38414 17.0138 2.10943C16.3532 1.83274 15.6739 1.69776 15.0528 1.65462C14.4318 1.61543 13.8661 1.65739 13.3999 1.73339C13.1691 1.78049 12.9537 1.82008 12.7748 1.86956C12.5975 1.92656 12.4392 1.96218 12.3121 2.00928C12.0576 2.10587 11.9143 2.14783 11.9016 2.12487C11.8929 2.1031 12.0184 2.02076 12.2567 1.8846ZM7.71089 8.5057C7.96977 7.9939 8.20173 7.5367 8.41073 7.1187C8.63002 6.7094 8.84693 6.354 9.02783 6.0361C9.21546 5.7214 9.36785 5.4392 9.53014 5.2155C10.1576 4.3035 10.4172 3.97579 10.4552 3.99874C10.4881 4.0241 10.293 4.3973 9.72014 5.3323C9.56933 5.5623 9.42841 5.8497 9.25227 6.1659C9.08127 6.4885 8.87702 6.8456 8.66683 7.2545C8.46258 7.6689 8.23814 8.1301 7.98718 8.6391C7.78848 9.0737 7.57275 9.5475 7.3396 10.0597C7.44846 10.1041 7.55652 10.1409 7.66933 10.1726C9.75933 7.1797 10.7759 1.26472 15.6775 2.4067C17.9452 2.93276 19.3524 4.621 19.1735 7.0083C19.1192 7.7512 18.9771 8.4994 18.7412 9.2135C18.8378 9.4003 18.9415 9.582 19.0508 9.7597C19.1129 9.6251 19.1711 9.502 19.2166 9.3912C19.2863 9.2071 19.3461 9.0611 19.394 8.9467C19.4905 8.7206 19.5436 8.6252 19.5654 8.6292C19.5855 8.6355 19.5717 8.7436 19.5107 8.9862C19.4791 9.1054 19.4359 9.2617 19.3813 9.4537C19.3322 9.6061 19.2621 9.7799 19.1861 9.977C19.3611 10.2462 19.5499 10.5066 19.7466 10.7635C19.9343 10.3633 20.1128 9.958 20.2739 9.544C21.0319 7.581 21.6276 5.0453 20.2573 3.18926C19.3548 1.96337 17.9036 1.09451 16.4141 0.804761C14.7675 0.480971 12.738 0.0146812 11.3514 1.2101C10.0535 2.32951 9.43237 3.77114 8.68583 5.2729C8.31296 6.0159 8.01648 6.787 7.67923 7.5454C7.37879 8.2199 6.76683 8.9011 6.54477 9.5958C6.70983 9.7177 6.87964 9.8258 7.05816 9.9224C7.28893 9.413 7.50427 8.938 7.71089 8.5057Z" fill="url(#paint1_linear_201_68)"/>
<path d="M17.4623 9.2365C17.5232 9.3481 17.5992 9.4854 17.6919 9.6596C17.7869 9.8322 17.9187 10.0305 18.062 10.2704C18.3521 10.7493 18.7693 11.353 19.3334 12.1138C19.8594 12.8239 20.5363 13.6571 21.2904 14.7017C21.4297 14.562 21.5528 14.4068 21.6617 14.2315C20.8684 12.9763 19.8088 11.9333 18.9253 10.747C18.1708 9.7356 17.6891 8.5188 17.4496 7.2862C17.2101 6.0718 17.4179 4.9947 17.9745 4.1259C17.8082 3.94416 17.6269 3.77633 17.4282 3.63898C17.3811 3.71418 17.3305 3.78781 17.2948 3.86658C17.2343 3.99602 17.1745 4.1231 17.1163 4.249C17.0098 4.5209 16.9374 4.7457 16.8958 4.982C16.8056 5.4444 16.8008 5.837 16.783 6.1038C16.7676 6.373 16.7565 6.5254 16.7284 6.5254C16.7054 6.5254 16.6738 6.3781 16.6473 6.1074C16.6219 5.837 16.5891 5.438 16.6512 4.9425C16.6766 4.6986 16.7514 4.4116 16.8412 4.1512C16.8994 4.0126 16.9604 3.87291 17.0201 3.72685C17.0554 3.63898 17.106 3.55783 17.1583 3.47391C17.1555 3.47391 17.1519 3.47154 17.1519 3.47154C16.8642 3.32785 16.5689 3.20475 16.2696 3.08521C16.143 3.25937 16.0238 3.43829 15.9185 3.62393C14.7801 5.6296 15.6711 8.0779 16.6599 9.9363C17.6828 11.8648 19.0733 13.5748 20.4524 15.2543C20.678 15.1629 20.8783 15.0485 21.0572 14.9099C20.3004 13.863 19.6212 13.0159 19.0998 12.284C18.5461 11.5089 18.1419 10.8827 17.8692 10.3836C17.7374 10.1334 17.6206 9.9224 17.5347 9.7407C17.4571 9.5567 17.395 9.4067 17.3522 9.2911C17.262 9.0571 17.2343 8.953 17.2533 8.9431C17.2747 8.938 17.3396 9.0255 17.4623 9.2365Z" fill="url(#paint2_linear_201_68)"/>
<path d="M10.1877 16.4596C9.82028 16.6349 9.50955 16.8333 9.18022 17.0656C9.06107 17.1472 8.90511 17.0822 8.87978 16.9401C8.72382 15.9707 8.31928 14.1147 6.9303 15.0686C6.13428 15.7356 5.83265 16.6579 5.8097 17.6716C5.7907 18.415 5.66522 19.5138 6.0947 20.1745C6.32943 20.5327 6.6932 20.8019 6.80601 21.2365C6.85153 21.4039 7.9187 21.1613 8.07347 21.1348C9.21941 20.9278 10.6987 20.5897 11.3617 19.5099C11.7179 18.9268 11.8763 18.2523 11.7369 17.5715C11.6075 16.9552 11.3197 15.9276 10.1877 16.4596Z" fill="url(#paint3_linear_201_68)"/>
<path d="M16.2431 14.8288C16.7221 13.9635 17.1694 13.2304 17.5498 12.5876C17.4306 12.4249 17.3143 12.2574 17.1975 12.0896C16.7031 12.8405 16.2075 13.5898 15.8196 14.4044C15.949 14.5667 16.0884 14.7053 16.2431 14.8288Z" fill="url(#paint4_linear_201_68)"/>
<path d="M30.5652 13.8261C29.0733 13.0424 28.8932 14.938 28.854 15.9173C28.8464 16.061 28.698 16.1422 28.5698 16.0772C28.2163 15.8857 27.883 15.7269 27.4951 15.5971C26.3099 15.2021 26.1453 16.2577 26.0918 16.884C26.0337 17.5778 26.2719 18.227 26.6951 18.7642C27.4812 19.7577 28.9893 19.9164 30.1543 19.9837C30.3091 19.994 31.3992 20.1068 31.4233 19.9331C31.493 19.426 31.9466 19.0183 32.1129 18.5405C32.3219 17.9448 32.0761 16.8816 31.9886 16.2756C31.8453 15.2733 31.4332 14.3918 30.5652 13.8261Z" fill="url(#paint5_linear_201_68)"/>
<path d="M31.6755 8.4079C31.493 8.3533 31.3065 8.2987 31.1229 8.2468C31.1074 8.2532 31.0964 8.2567 31.0797 8.2619C31.0694 8.2631 31.0544 8.2682 31.0417 8.2722C31.0734 8.3676 31.0568 8.4792 30.9657 8.5734C30.5283 9.014 30.0415 9.3951 29.4687 9.6366C29.4204 9.6774 29.3737 9.7241 29.3266 9.7637C29.0186 10.0356 28.7653 10.2335 28.5559 10.3633C28.4494 10.4279 28.3619 10.4837 28.2848 10.5221C28.206 10.5589 28.1415 10.5866 28.0908 10.6044C27.9895 10.6428 27.9388 10.6491 27.9285 10.6301C27.9186 10.6096 27.9503 10.5676 28.0314 10.4991C28.0678 10.4635 28.1225 10.4227 28.1898 10.3732C28.2555 10.3214 28.333 10.2577 28.4269 10.1828C28.5777 10.0597 28.7665 9.8931 28.9893 9.6837C28.9703 9.6706 28.9513 9.6568 28.9323 9.6378C28.8829 9.582 28.8338 9.5246 28.7815 9.4688C27.8133 10.2185 26.7636 10.8498 25.7574 11.5433C24.5873 12.3512 23.4793 13.243 22.2954 14.0398C22.3477 14.1147 22.3667 14.2124 22.3271 14.3165C23.7062 13.4501 24.1895 13.2114 24.2287 13.2723C24.2781 13.3408 23.7394 13.7679 21.9075 14.9518C21.5528 15.3698 21.1028 15.6723 20.5589 15.8828C20.45 15.9921 20.2774 16.0214 20.1508 15.8666C20.1254 15.8373 20.0962 15.8041 20.0708 15.7712C20.0253 15.8183 19.9833 15.869 19.9406 15.9185C19.9988 16.1382 20.0419 16.3048 20.0962 16.5182C22.2016 15.7522 24.2132 14.4195 26.036 13.1465C28.054 11.7416 29.9108 10.1167 31.6755 8.4079Z" fill="url(#paint6_linear_201_68)"/>
<path d="M31.7618 20.201C31.7491 20.3039 31.6842 20.3867 31.5714 20.3867C29.5851 20.3803 27.0617 20.389 25.9992 18.3754C25.5721 17.5652 25.605 16.4141 26.0804 15.6418C26.6053 14.784 27.7536 15.2377 28.4954 15.6137C28.6042 14.2378 29.0911 12.6271 30.7564 13.4984C31.8275 14.1998 32.2194 15.2594 32.3967 16.4917C32.483 17.0886 32.5376 17.7136 32.5246 18.3145C32.5083 19.0476 31.8568 19.4885 31.7618 20.201ZM34.7278 13.9508C34.8418 14.0664 34.9649 14.2164 35.1129 14.3902C35.411 14.7385 35.7644 15.221 36.2082 15.8437C36.5795 16.3682 37.0093 16.9983 37.5884 17.6677C37.647 17.617 37.7013 17.5652 37.7598 17.5129C37.0196 15.8983 35.8444 14.4171 34.8394 12.9573C33.8454 11.5141 32.5578 10.3404 31.9264 8.6902C30.2267 10.3277 28.4431 11.8648 26.5344 13.2522C24.6518 14.6214 22.5262 16.0087 20.3281 16.8321C21.3613 18.457 22.3702 20.1325 23.5455 21.6569C24.5746 22.9897 25.6861 24.2777 26.4038 25.8135C26.5494 25.717 26.6967 25.6216 26.8424 25.525C26.3531 25.0488 26.0614 24.5014 25.7776 24.0299C25.6216 23.758 25.472 23.5027 25.3176 23.2691C25.1589 23.0352 25.0069 22.8115 24.8648 22.5982C24.292 21.7507 23.8483 21.0865 23.5253 20.568C22.8722 19.534 22.6493 19.1275 22.6845 19.1046C22.7229 19.0832 23.0103 19.4466 23.7101 20.4449C24.0561 20.9428 24.5149 21.5983 25.1019 22.4343C25.2491 22.6465 25.4023 22.8662 25.5646 23.1025C25.7281 23.3427 25.8841 23.6032 26.0424 23.8724C26.3341 24.3616 26.6472 24.9154 27.1187 25.3512C28.8247 24.2726 30.6067 23.321 32.2597 22.16C34.0774 20.8858 35.7217 19.3753 37.3565 17.8799C36.7608 17.1864 36.3337 16.5411 35.9699 16.0087C35.5416 15.3774 35.2107 14.887 34.9395 14.5275C34.8038 14.3482 34.6937 14.1923 34.5959 14.0664C34.4934 13.9469 34.4147 13.8467 34.3537 13.7679C34.2334 13.6064 34.189 13.5289 34.2041 13.515C34.2183 13.4984 34.2916 13.5479 34.4439 13.684C34.516 13.7513 34.6126 13.8404 34.7278 13.9508Z" fill="url(#paint7_linear_201_68)"/>
<path d="M16.4988 15.0075C16.6955 15.1231 16.9073 15.2134 17.1417 15.2783C17.5118 14.6952 17.883 14.1082 18.2433 13.5149C18.077 13.2975 17.9084 13.0779 17.7413 12.853C17.3788 13.482 16.954 14.1894 16.4988 15.0075Z" fill="url(#paint8_linear_201_68)"/>
<path d="M11.6012 16.334C12.164 17.0453 12.3339 18.1834 12.0057 19.0399C11.1903 21.1664 8.68464 21.4585 6.71457 21.7051C6.60176 21.7178 6.52853 21.6414 6.50161 21.5424C6.33061 20.8818 5.69451 20.4855 5.50293 19.8312C5.24682 18.9521 5.36359 17.8342 5.51797 16.9401C5.65136 16.1523 6.01632 15.2376 6.70191 14.7673C8.25239 13.7029 8.92768 15.2439 9.19803 16.5957C9.88995 16.1345 10.9762 15.5475 11.6012 16.334ZM4.96816 10.1333C4.53828 11.8457 3.39868 13.1654 2.58366 14.7178C1.75993 16.2869 0.768762 17.8992 0.226074 19.5909C0.290595 19.6345 0.351553 19.6788 0.416074 19.7243C0.911657 18.9917 1.26039 18.3132 1.56834 17.7464C1.9333 17.0758 2.22899 16.5537 2.48114 16.1737C2.61018 15.9833 2.71428 15.8206 2.81324 15.6936C2.91457 15.5677 2.99809 15.4676 3.06301 15.3927C3.19839 15.2399 3.26568 15.1818 3.28072 15.1956C3.29616 15.2083 3.26568 15.2898 3.16316 15.4636C3.11091 15.5487 3.04639 15.6591 2.95891 15.7913C2.87539 15.9275 2.78514 16.0961 2.67114 16.2881C2.44314 16.6796 2.17555 17.2053 1.82445 17.8849C1.52678 18.4541 1.18043 19.1464 0.669803 19.906C2.47361 21.1968 4.28614 22.4991 6.24076 23.5469C8.02043 24.5036 9.90499 25.2328 11.7267 26.0992C12.1411 25.61 12.3845 25.0234 12.6165 24.5036C12.7432 24.2178 12.8663 23.9396 13.0004 23.6831C13.1338 23.4278 13.2605 23.1903 13.3797 22.9627C13.8626 22.0621 14.2402 21.3556 14.5256 20.8208C15.1007 19.7449 15.3442 19.3511 15.3838 19.3677C15.4218 19.3867 15.2492 19.8162 14.7231 20.9213C14.4658 21.4751 14.102 22.1876 13.6358 23.0961C13.519 23.326 13.3959 23.5663 13.2668 23.8188C13.1414 24.0694 13.0234 24.3386 12.8979 24.6267C12.6747 25.1298 12.4506 25.7093 12.0184 26.239C12.1767 26.3166 12.335 26.3941 12.491 26.4729C13.021 24.8631 13.9691 23.4507 14.8324 22.0036C15.8196 20.3494 16.6195 18.5661 17.4536 16.828C15.1744 16.2754 12.8952 15.1525 10.8661 14.018C8.8022 12.8697 6.84916 11.5559 4.96816 10.1333Z" fill="url(#paint9_linear_201_68)"/>
<path d="M17.5141 15.8501C17.4065 16.0191 17.2303 16.0088 17.11 15.915C16.5447 15.7713 16.0642 15.5224 15.6601 15.1503C13.7003 14.1959 13.116 13.8365 13.1564 13.7617C13.1881 13.6968 13.6963 13.8745 15.1692 14.572C15.1174 14.4718 15.1261 14.3741 15.168 14.2901C13.8978 13.6422 12.6889 12.8901 11.4326 12.2282C10.3488 11.6602 9.23208 11.1587 8.18114 10.5297C8.138 10.5931 8.09644 10.6556 8.0521 10.7166C8.03548 10.7367 8.01885 10.7534 8.00262 10.7684C8.24844 10.9501 8.45625 11.0926 8.62131 11.1967C8.72106 11.2588 8.80735 11.3135 8.87702 11.3566C8.95064 11.3986 9.00883 11.433 9.05079 11.4635C9.13946 11.5221 9.17508 11.5573 9.16756 11.5803C9.16123 11.5993 9.11175 11.5993 9.00527 11.5739C8.95064 11.5636 8.88335 11.5434 8.80221 11.5153C8.71869 11.4864 8.62764 11.4433 8.51483 11.3911C8.28921 11.2858 8.01529 11.1191 7.67685 10.8868C7.62737 10.8535 7.57275 10.8143 7.52089 10.7787C6.92517 10.6097 6.39514 10.2883 5.90708 9.9007C5.80575 9.8196 5.77685 9.7115 5.79704 9.6126C5.78319 9.6114 5.76775 9.6086 5.75785 9.6062C5.74123 9.6051 5.72856 9.6011 5.71194 9.5959C5.53698 9.6708 5.35964 9.7483 5.18231 9.822C7.13931 11.3071 9.17508 12.6981 11.3479 13.8531C13.3084 14.8997 15.4633 15.9796 17.6464 16.489C17.6741 16.2717 17.697 16.1003 17.7287 15.8766C17.6804 15.8335 17.6333 15.788 17.5814 15.746C17.5601 15.7789 17.5347 15.8169 17.5141 15.8501Z" fill="url(#paint10_linear_201_68)"/>
<defs>
<linearGradient id="paint0_linear_201_68" x1="9" y1="24" x2="28" y2="-7.5" gradientUnits="userSpaceOnUse">
<stop offset="0.217095" stop-color="#A58FE9"/>
<stop offset="0.726735" stop-color="#E37682"/>
</linearGradient>
<linearGradient id="paint1_linear_201_68" x1="9" y1="24" x2="28" y2="-7.5" gradientUnits="userSpaceOnUse">
<stop offset="0.217095" stop-color="#A58FE9"/>
<stop offset="0.726735" stop-color="#E37682"/>
</linearGradient>
<linearGradient id="paint2_linear_201_68" x1="9" y1="24" x2="28" y2="-7.5" gradientUnits="userSpaceOnUse">
<stop offset="0.217095" stop-color="#A58FE9"/>
<stop offset="0.726735" stop-color="#E37682"/>
</linearGradient>
<linearGradient id="paint3_linear_201_68" x1="9" y1="24" x2="28" y2="-7.5" gradientUnits="userSpaceOnUse">
<stop offset="0.217095" stop-color="#A58FE9"/>
<stop offset="0.726735" stop-color="#E37682"/>
</linearGradient>
<linearGradient id="paint4_linear_201_68" x1="9" y1="24" x2="28" y2="-7.5" gradientUnits="userSpaceOnUse">
<stop offset="0.217095" stop-color="#A58FE9"/>
<stop offset="0.726735" stop-color="#E37682"/>
</linearGradient>
<linearGradient id="paint5_linear_201_68" x1="9" y1="24" x2="28" y2="-7.5" gradientUnits="userSpaceOnUse">
<stop offset="0.217095" stop-color="#A58FE9"/>
<stop offset="0.726735" stop-color="#E37682"/>
</linearGradient>
<linearGradient id="paint6_linear_201_68" x1="9" y1="24" x2="28" y2="-7.5" gradientUnits="userSpaceOnUse">
<stop offset="0.217095" stop-color="#A58FE9"/>
<stop offset="0.726735" stop-color="#E37682"/>
</linearGradient>
<linearGradient id="paint7_linear_201_68" x1="9" y1="24" x2="28" y2="-7.5" gradientUnits="userSpaceOnUse">
<stop offset="0.217095" stop-color="#A58FE9"/>
<stop offset="0.726735" stop-color="#E37682"/>
</linearGradient>
<linearGradient id="paint8_linear_201_68" x1="9" y1="24" x2="28" y2="-7.5" gradientUnits="userSpaceOnUse">
<stop offset="0.217095" stop-color="#A58FE9"/>
<stop offset="0.726735" stop-color="#E37682"/>
</linearGradient>
<linearGradient id="paint9_linear_201_68" x1="9" y1="24" x2="28" y2="-7.5" gradientUnits="userSpaceOnUse">
<stop offset="0.217095" stop-color="#A58FE9"/>
<stop offset="0.726735" stop-color="#E37682"/>
</linearGradient>
<linearGradient id="paint10_linear_201_68" x1="9" y1="24" x2="28" y2="-7.5" gradientUnits="userSpaceOnUse">
<stop offset="0.217095" stop-color="#A58FE9"/>
<stop offset="0.726735" stop-color="#E37682"/>
</linearGradient>
</defs>
</svg>
