<svg width="60" height="48" viewBox="0 0 60 48" fill="none" xmlns="http://www.w3.org/2000/svg">
<path d="M51 0H9C6.61305 0 4.32387 0.948212 2.63604 2.63604C0.948212 4.32387 0 6.61305 0 9V39C0 41.3869 0.948212 43.6761 2.63604 45.364C4.32387 47.0518 6.61305 48 9 48H51C53.3869 48 55.6761 47.0518 57.364 45.364C59.0518 43.6761 60 41.3869 60 39V9C60 6.61305 59.0518 4.32387 57.364 2.63604C55.6761 0.948212 53.3869 0 51 0ZM49.77 6L32.13 23.64C31.8511 23.9212 31.5193 24.1444 31.1537 24.2967C30.7882 24.449 30.396 24.5274 30 24.5274C29.604 24.5274 29.2118 24.449 28.8463 24.2967C28.4807 24.1444 28.1489 23.9212 27.87 23.64L10.23 6H49.77ZM54 39C54 39.7957 53.6839 40.5587 53.1213 41.1213C52.5587 41.6839 51.7957 42 51 42H9C8.20435 42 7.44129 41.6839 6.87868 41.1213C6.31607 40.5587 6 39.7957 6 39V10.23L23.64 27.87C25.3275 29.5554 27.615 30.5021 30 30.5021C32.385 30.5021 34.6725 29.5554 36.36 27.87L54 10.23V39Z" fill="black"/>
</svg>
