<svg width="38" height="38" viewBox="0 0 38 38" fill="none" xmlns="http://www.w3.org/2000/svg">
<path d="M20.8442 7.15955C21.4906 7.05782 22.0851 7.05782 22.5732 7.11007C22.8162 7.1453 23.0395 7.17855 23.2283 7.22684C23.4187 7.28265 23.5857 7.32065 23.7088 7.3729C23.9598 7.47701 24.094 7.54549 24.0876 7.56963C24.0789 7.59378 23.9293 7.56726 23.6669 7.50234C23.535 7.47067 23.3739 7.45405 23.1915 7.42119C23.0054 7.3919 22.7885 7.37647 22.5542 7.36024C22.08 7.33965 21.5159 7.3638 20.9024 7.47938C20.5398 7.55063 20.1598 7.65751 19.7794 7.80476C19.963 7.94686 20.1356 8.09965 20.3027 8.25838C20.3193 8.27738 20.3383 8.29401 20.3549 8.31301C20.3585 8.31657 20.3636 8.3229 20.3676 8.32686C20.3981 8.30667 20.4333 8.28767 20.4677 8.26828C20.9178 8.03236 21.5551 7.98882 21.9925 7.98526C21.9949 7.98526 21.9988 7.98526 22.0012 7.98526C22.137 7.98526 22.2739 7.99159 22.4097 8.00426C22.4184 8.00544 22.4287 8.00821 22.4386 8.00821C22.5617 8.02207 22.6844 8.04107 22.8075 8.0664C22.8328 8.07274 22.8558 8.07907 22.8784 8.0854C22.9825 8.10836 23.085 8.13765 23.1879 8.16813C23.2231 8.1808 23.2576 8.19346 23.2932 8.20613C23.3819 8.23542 23.4666 8.27105 23.5517 8.30905C23.577 8.31934 23.6023 8.32686 23.6277 8.33715C23.6427 8.34467 23.6582 8.35496 23.6732 8.3613C23.7595 8.40326 23.8458 8.44878 23.9293 8.49707C23.9622 8.51488 24.0002 8.53269 24.0334 8.55288C24.1371 8.61542 24.2373 8.67994 24.3374 8.75119C24.4122 8.80344 24.4858 8.86044 24.5579 8.91903C24.586 8.93803 24.6101 8.95584 24.6355 8.97722C24.7166 9.04213 24.7938 9.10824 24.871 9.1779C24.8864 9.18938 24.9003 9.20482 24.9141 9.21749C24.998 9.2923 25.0776 9.36988 25.1564 9.44865C25.1627 9.4538 25.1679 9.45736 25.1714 9.46132C25.4794 9.77126 25.7608 10.1065 26.026 10.4497C26.0739 10.5119 26.1234 10.5756 26.1717 10.6401C26.1753 10.6453 26.1804 10.6504 26.1844 10.6567C26.1919 10.6694 26.2034 10.6809 26.2109 10.6963C26.3277 10.8511 26.4377 11.0074 26.5493 11.1662C26.5695 11.1978 26.5925 11.2271 26.6138 11.2564C26.7191 11.4128 26.8256 11.5715 26.9309 11.7302C26.9649 11.7825 27.0006 11.8371 27.0362 11.8902C27.1387 12.0477 27.2428 12.204 27.3453 12.3628C27.472 12.5611 27.5991 12.7578 27.7269 12.9561C27.7309 12.9625 27.7344 12.9688 27.7384 12.9751C27.8674 13.1707 29.0185 15.0537 29.2354 15.0537C29.239 15.0537 29.2442 15.0537 29.2481 15.0509C29.3582 15.0077 29.4595 14.9571 29.5624 14.9013C29.2707 14.4223 28.9995 13.9774 28.7498 13.5685C28.4406 13.0919 28.1615 12.6612 27.9094 12.2753C27.6533 11.8929 27.4075 11.5652 27.1997 11.2639C26.9867 10.9718 26.8141 10.705 26.6368 10.4929C25.9575 9.63271 25.7177 9.28596 25.7482 9.25667C25.7826 9.22778 26.0779 9.52505 26.8118 10.3531C26.9994 10.5578 27.1842 10.8167 27.4075 11.1092C27.6268 11.4037 27.8829 11.7279 28.1489 12.1102C28.405 12.4989 28.6916 12.9268 29.0082 13.4034C29.2671 13.8088 29.5359 14.2533 29.8248 14.7322C29.9919 14.6139 30.1478 14.4856 30.2963 14.3471C29.9947 13.6817 29.3039 13.0792 28.9275 12.4467C28.5016 11.7314 28.1148 11.0035 27.6573 10.31C26.7369 8.90755 25.9484 7.55182 24.525 6.59549C23.0078 5.57265 21.0496 6.2804 19.4512 6.79617C19.2141 6.87376 18.9822 6.97153 18.7514 7.07801C18.996 7.22407 19.2292 7.39824 19.4548 7.5633C19.925 7.36657 20.3981 7.23436 20.8442 7.15955Z" fill="black"/>
<path d="M12.2566 7.8846C12.373 7.81731 12.5329 7.76149 12.7142 7.68391C12.8951 7.61028 13.112 7.5517 13.3503 7.48837C13.8296 7.37635 14.419 7.30549 15.0717 7.33083C15.7245 7.36012 16.4457 7.48956 17.1491 7.78445C17.8513 8.07658 18.4585 8.51753 18.8884 9.02935C18.9834 9.16274 19.0974 9.28228 19.1746 9.42201C19.2545 9.55897 19.3293 9.69118 19.4041 9.82339C19.5245 10.0712 19.6321 10.3455 19.688 10.5854C19.8087 11.0695 19.8237 11.4685 19.8301 11.7404C19.8364 12.0135 19.8214 12.1647 19.7984 12.1659C19.7731 12.1659 19.7402 12.0187 19.6971 11.7531C19.6464 11.4898 19.5941 11.1011 19.4485 10.6515C19.3788 10.4243 19.281 10.207 19.1445 9.95045C19.0709 9.83606 18.9937 9.71414 18.9189 9.59341C18.844 9.46753 18.7336 9.36343 18.6422 9.2427C18.2356 8.78393 17.67 8.38414 17.0137 8.10943C16.3531 7.83274 15.6738 7.69776 15.0527 7.65462C14.4317 7.61543 13.866 7.65739 13.3998 7.73339C13.169 7.78049 12.9536 7.82008 12.7747 7.86956C12.5974 7.92656 12.4391 7.96218 12.312 8.00928C12.0575 8.10587 11.9142 8.14783 11.9015 8.12487C11.8928 8.1031 12.0183 8.02076 12.2566 7.8846ZM7.71083 14.5057C7.96971 13.9939 8.20167 13.5367 8.41067 13.1187C8.62996 12.7094 8.84687 12.354 9.02777 12.0361C9.2154 11.7214 9.36779 11.4392 9.53008 11.2155C10.1575 10.3035 10.4171 9.97579 10.4551 9.99874C10.488 10.0241 10.2929 10.3973 9.72008 11.3323C9.56927 11.5623 9.42835 11.8497 9.25221 12.1659C9.08121 12.4885 8.87696 12.8456 8.66677 13.2545C8.46252 13.6689 8.23808 14.1301 7.98712 14.6391C7.78842 15.0737 7.57269 15.5475 7.33954 16.0597C7.4484 16.1041 7.55646 16.1409 7.66927 16.1726C9.75927 13.1797 10.7758 7.26472 15.6774 8.4067C17.9451 8.93276 19.3523 10.621 19.1734 13.0083C19.1191 13.7512 18.977 14.4994 18.7411 15.2135C18.8377 15.4003 18.9414 15.582 19.0507 15.7597C19.1128 15.6251 19.171 15.502 19.2165 15.3912C19.2862 15.2071 19.346 15.0611 19.3939 14.9467C19.4904 14.7206 19.5435 14.6252 19.5653 14.6292C19.5854 14.6355 19.5716 14.7436 19.5106 14.9862C19.479 15.1054 19.4358 15.2617 19.3812 15.4537C19.3321 15.6061 19.262 15.7799 19.186 15.977C19.361 16.2462 19.5498 16.5066 19.7465 16.7635C19.9342 16.3633 20.1127 15.958 20.2738 15.544C21.0318 13.581 21.6275 11.0453 20.2572 9.18926C19.3547 7.96337 17.9035 7.09451 16.414 6.80476C14.7674 6.48097 12.7379 6.01468 11.3513 7.2101C10.0534 8.32951 9.43231 9.77114 8.68577 11.2729C8.3129 12.0159 8.01642 12.787 7.67917 13.5454C7.37873 14.2199 6.76677 14.9011 6.54471 15.5958C6.70977 15.7177 6.87958 15.8258 7.0581 15.9224C7.28887 15.413 7.50421 14.938 7.71083 14.5057Z" fill="black"/>
<path d="M17.4622 15.2365C17.5231 15.3481 17.5991 15.4854 17.6918 15.6596C17.7868 15.8322 17.9186 16.0305 18.0619 16.2704C18.352 16.7493 18.7692 17.353 19.3333 18.1138C19.8593 18.8239 20.5362 19.6571 21.2903 20.7017C21.4296 20.562 21.5527 20.4068 21.6616 20.2315C20.8683 18.9763 19.8087 17.9333 18.9252 16.747C18.1707 15.7356 17.689 14.5188 17.4495 13.2862C17.21 12.0718 17.4178 10.9947 17.9744 10.1259C17.8081 9.94416 17.6268 9.77633 17.4281 9.63898C17.381 9.71418 17.3304 9.78781 17.2947 9.86658C17.2342 9.99602 17.1744 10.1231 17.1162 10.249C17.0097 10.5209 16.9373 10.7457 16.8957 10.982C16.8055 11.4444 16.8007 11.837 16.7829 12.1038C16.7675 12.373 16.7564 12.5254 16.7283 12.5254C16.7053 12.5254 16.6737 12.3781 16.6472 12.1074C16.6218 11.837 16.589 11.438 16.6511 10.9425C16.6765 10.6986 16.7513 10.4116 16.8411 10.1512C16.8993 10.0126 16.9603 9.87291 17.02 9.72685C17.0553 9.63898 17.1059 9.55783 17.1582 9.47391C17.1554 9.47391 17.153 9.47154 17.1518 9.47154C16.8641 9.32785 16.5688 9.20475 16.2695 9.08521C16.1429 9.25937 16.0237 9.43829 15.9184 9.62393C14.78 11.6296 15.671 14.0779 16.6598 15.9363C17.6827 17.8648 19.0732 19.5748 20.4523 21.2543C20.6779 21.1629 20.8782 21.0485 21.0571 20.9099C20.3003 19.863 19.6211 19.0159 19.0997 18.284C18.546 17.5089 18.1418 16.8827 17.8691 16.3836C17.7373 16.1334 17.6205 15.9224 17.5346 15.7407C17.457 15.5567 17.3949 15.4067 17.3521 15.2911C17.2619 15.0571 17.2342 14.953 17.2532 14.9431C17.2746 14.938 17.3395 15.0255 17.4622 15.2365Z" fill="black"/>
<path d="M10.1876 22.4596C9.82022 22.6349 9.50949 22.8333 9.18016 23.0656C9.06101 23.1472 8.90505 23.0822 8.87972 22.9401C8.72376 21.9707 8.31922 20.1147 6.93024 21.0686C6.13422 21.7356 5.83259 22.6579 5.80964 23.6716C5.79064 24.415 5.66516 25.5138 6.09464 26.1745C6.32937 26.5327 6.69314 26.8019 6.80595 27.2365C6.85147 27.4039 7.91864 27.1613 8.07341 27.1348C9.21935 26.9278 10.6986 26.5897 11.3616 25.5099C11.7178 24.9268 11.8762 24.2523 11.7368 23.5715C11.6074 22.9552 11.3196 21.9276 10.1876 22.4596Z" fill="black"/>
<path d="M16.243 20.8288C16.722 19.9635 17.1693 19.2304 17.5497 18.5876C17.4305 18.4249 17.3142 18.2574 17.1974 18.0896C16.703 18.8405 16.2074 19.5898 15.8195 20.4044C15.9489 20.5667 16.0883 20.7053 16.243 20.8288Z" fill="black"/>
<path d="M30.5651 19.8261C29.0732 19.0424 28.8931 20.938 28.8539 21.9173C28.8463 22.061 28.6979 22.1422 28.5697 22.0772C28.2162 21.8857 27.8829 21.7269 27.495 21.5971C26.3098 21.2021 26.1452 22.2577 26.0917 22.884C26.0336 23.5778 26.2718 24.227 26.695 24.7642C27.4811 25.7577 28.9892 25.9164 30.1542 25.9837C30.309 25.994 31.3991 26.1068 31.4232 25.9331C31.4929 25.426 31.9465 25.0183 32.1128 24.5405C32.3218 23.9448 32.076 22.8816 31.9885 22.2756C31.8452 21.2733 31.4331 20.3918 30.5651 19.8261Z" fill="black"/>
<path d="M31.6754 14.4079C31.4929 14.3533 31.3064 14.2987 31.1228 14.2468C31.1073 14.2532 31.0963 14.2567 31.0796 14.2619C31.0693 14.2631 31.0543 14.2682 31.0416 14.2722C31.0733 14.3676 31.0567 14.4792 30.9656 14.5734C30.5282 15.014 30.0414 15.3951 29.4686 15.6366C29.4203 15.6774 29.3736 15.7241 29.3265 15.7637C29.0185 16.0356 28.7652 16.2335 28.5558 16.3633C28.4493 16.4279 28.3618 16.4837 28.2847 16.5221C28.2059 16.5589 28.1414 16.5866 28.0907 16.6044C27.9894 16.6428 27.9387 16.6491 27.9284 16.6301C27.9185 16.6096 27.9502 16.5676 28.0313 16.4991C28.0677 16.4635 28.1224 16.4227 28.1897 16.3732C28.2554 16.3214 28.3329 16.2577 28.4268 16.1828C28.5776 16.0597 28.7664 15.8931 28.9892 15.6837C28.9702 15.6706 28.9512 15.6568 28.9322 15.6378C28.8828 15.582 28.8337 15.5246 28.7814 15.4688C27.8132 16.2185 26.7635 16.8498 25.7573 17.5433C24.5872 18.3512 23.4792 19.243 22.2953 20.0398C22.3476 20.1147 22.3666 20.2124 22.327 20.3165C23.7061 19.4501 24.1894 19.2114 24.2286 19.2723C24.278 19.3408 23.7393 19.7679 21.9074 20.9518C21.5527 21.3698 21.1027 21.6723 20.5588 21.8828C20.4499 21.9921 20.2773 22.0214 20.1507 21.8666C20.1253 21.8373 20.0961 21.8041 20.0707 21.7712C20.0252 21.8183 19.9832 21.869 19.9405 21.9185C19.9987 22.1382 20.0418 22.3048 20.0961 22.5182C22.2015 21.7522 24.2131 20.4195 26.0359 19.1465C28.0539 17.7416 29.9107 16.1167 31.6754 14.4079Z" fill="black"/>
<path d="M31.7617 26.201C31.749 26.3039 31.6841 26.3867 31.5713 26.3867C29.585 26.3803 27.0616 26.389 25.9991 24.3754C25.572 23.5652 25.6049 22.4141 26.0803 21.6418C26.6052 20.784 27.7535 21.2377 28.4953 21.6137C28.6041 20.2378 29.091 18.6271 30.7563 19.4984C31.8274 20.1998 32.2193 21.2594 32.3966 22.4917C32.4829 23.0886 32.5375 23.7136 32.5245 24.3145C32.5082 25.0476 31.8567 25.4885 31.7617 26.201ZM34.7277 19.9508C34.8417 20.0664 34.9648 20.2164 35.1128 20.3902C35.4109 20.7385 35.7643 21.221 36.2081 21.8437C36.5794 22.3682 37.0092 22.9983 37.5883 23.6677C37.6469 23.617 37.7012 23.5652 37.7597 23.5129C37.0195 21.8983 35.8443 20.4171 34.8393 18.9573C33.8453 17.5141 32.5577 16.3404 31.9263 14.6902C30.2266 16.3277 28.443 17.8648 26.5343 19.2522C24.6517 20.6214 22.5261 22.0087 20.328 22.8321C21.3612 24.457 22.3701 26.1325 23.5454 27.6569C24.5745 28.9897 25.686 30.2777 26.4037 31.8135C26.5493 31.717 26.6966 31.6216 26.8423 31.525C26.353 31.0488 26.0613 30.5014 25.7775 30.0299C25.6215 29.758 25.4719 29.5027 25.3175 29.2691C25.1588 29.0352 25.0068 28.8115 24.8647 28.5982C24.2919 27.7507 23.8482 27.0865 23.5252 26.568C22.8721 25.534 22.6492 25.1275 22.6844 25.1046C22.7228 25.0832 23.0102 25.4466 23.71 26.4449C24.056 26.9428 24.5148 27.5983 25.1018 28.4343C25.249 28.6465 25.4022 28.8662 25.5645 29.1025C25.728 29.3427 25.884 29.6032 26.0423 29.8724C26.334 30.3616 26.6471 30.9154 27.1186 31.3512C28.8246 30.2726 30.6066 29.321 32.2596 28.16C34.0773 26.8858 35.7216 25.3753 37.3564 23.8799C36.7607 23.1864 36.3336 22.5411 35.9698 22.0087C35.5415 21.3774 35.2106 20.887 34.9394 20.5275C34.8037 20.3482 34.6936 20.1923 34.5958 20.0664C34.4933 19.9469 34.4146 19.8467 34.3536 19.7679C34.2333 19.6064 34.1889 19.5289 34.204 19.515C34.2182 19.4984 34.2915 19.5479 34.4438 19.684C34.5159 19.7513 34.6125 19.8404 34.7277 19.9508Z" fill="black"/>
<path d="M16.4987 21.0075C16.6954 21.1231 16.9072 21.2134 17.1416 21.2783C17.5117 20.6952 17.8829 20.1082 18.2432 19.5149C18.0769 19.2975 17.9083 19.0779 17.7412 18.853C17.3787 19.482 16.9539 20.1894 16.4987 21.0075Z" fill="black"/>
<path d="M11.6011 22.334C12.1639 23.0453 12.3338 24.1834 12.0056 25.0399C11.1902 27.1664 8.68458 27.4585 6.71451 27.7051C6.6017 27.7178 6.52847 27.6414 6.50155 27.5424C6.33055 26.8818 5.69445 26.4855 5.50287 25.8312C5.24676 24.9521 5.36353 23.8342 5.51791 22.9401C5.6513 22.1523 6.01626 21.2376 6.70185 20.7673C8.25233 19.7029 8.92762 21.2439 9.19797 22.5957C9.88989 22.1345 10.9761 21.5475 11.6011 22.334ZM4.9681 16.1333C4.53822 17.8457 3.39862 19.1654 2.5836 20.7178C1.75987 22.2869 0.768701 23.8992 0.226013 25.5909C0.290534 25.6345 0.351492 25.6788 0.416013 25.7243C0.911596 24.9917 1.26033 24.3132 1.56828 23.7464C1.93324 23.0758 2.22893 22.5537 2.48108 22.1737C2.61012 21.9833 2.71422 21.8206 2.81318 21.6936C2.91451 21.5677 2.99803 21.4676 3.06295 21.3927C3.19833 21.2399 3.26562 21.1818 3.28066 21.1956C3.2961 21.2083 3.26562 21.2898 3.1631 21.4636C3.11085 21.5487 3.04633 21.6591 2.95885 21.7913C2.87533 21.9275 2.78508 22.0961 2.67108 22.2881C2.44308 22.6796 2.17549 23.2053 1.82439 23.8849C1.52672 24.4541 1.18037 25.1464 0.669742 25.906C2.47355 27.1968 4.28608 28.4991 6.2407 29.5469C8.02037 30.5036 9.90493 31.2328 11.7266 32.0992C12.141 31.61 12.3844 31.0234 12.6164 30.5036C12.7431 30.2178 12.8662 29.9396 13.0003 29.6831C13.1337 29.4278 13.2604 29.1903 13.3796 28.9627C13.8625 28.0621 14.2401 27.3556 14.5255 26.8208C15.1006 25.7449 15.3441 25.3511 15.3837 25.3677C15.4217 25.3867 15.2491 25.8162 14.723 26.9213C14.4657 27.4751 14.1019 28.1876 13.6357 29.0961C13.5189 29.326 13.3958 29.5663 13.2667 29.8188C13.1413 30.0694 13.0233 30.3386 12.8978 30.6267C12.6746 31.1298 12.4505 31.7093 12.0183 32.239C12.1766 32.3166 12.3349 32.3941 12.4909 32.4729C13.0209 30.8631 13.969 29.4507 14.8323 28.0036C15.8195 26.3494 16.6194 24.5661 17.4535 22.828C15.1743 22.2754 12.8951 21.1525 10.866 20.018C8.80214 18.8697 6.8491 17.5559 4.9681 16.1333Z" fill="black"/>
<path d="M17.514 21.8501C17.4064 22.0191 17.2302 22.0088 17.1099 21.915C16.5446 21.7713 16.0641 21.5224 15.66 21.1503C13.7002 20.1959 13.1159 19.8365 13.1563 19.7617C13.188 19.6968 13.6962 19.8745 15.1691 20.572C15.1173 20.4718 15.126 20.3741 15.1679 20.2901C13.8977 19.6422 12.6888 18.8901 11.4325 18.2282C10.3487 17.6602 9.23202 17.1587 8.18108 16.5297C8.13794 16.5931 8.09638 16.6556 8.05204 16.7166C8.03542 16.7367 8.01879 16.7534 8.00256 16.7684C8.24838 16.9501 8.45619 17.0926 8.62125 17.1967C8.721 17.2588 8.80729 17.3135 8.87696 17.3566C8.95058 17.3986 9.00877 17.433 9.05073 17.4635C9.1394 17.5221 9.17502 17.5573 9.1675 17.5803C9.16117 17.5993 9.11169 17.5993 9.00521 17.5739C8.95058 17.5636 8.88329 17.5434 8.80215 17.5153C8.71863 17.4864 8.62758 17.4433 8.51477 17.3911C8.28915 17.2858 8.01523 17.1191 7.67679 16.8868C7.62731 16.8535 7.57269 16.8143 7.52083 16.7787C6.92511 16.6097 6.39508 16.2883 5.90702 15.9007C5.80569 15.8196 5.77679 15.7115 5.79698 15.6126C5.78313 15.6114 5.76769 15.6086 5.75779 15.6062C5.74117 15.6051 5.7285 15.6011 5.71188 15.5959C5.53692 15.6708 5.35958 15.7483 5.18225 15.822C7.13925 17.3071 9.17502 18.6981 11.3478 19.8531C13.3083 20.8997 15.4632 21.9796 17.6463 22.489C17.674 22.2717 17.6969 22.1003 17.7286 21.8766C17.6803 21.8335 17.6332 21.788 17.5813 21.746C17.56 21.7789 17.5346 21.8169 17.514 21.8501Z" fill="black"/>
</svg>
