<svg width="31" height="31" viewBox="0 0 31 31" fill="none" xmlns="http://www.w3.org/2000/svg">
<path d="M28.5 15.9999C28.1022 15.9999 27.7206 16.1579 27.4393 16.4392C27.158 16.7206 27 17.1021 27 17.4999V26.4999C27 26.8977 26.842 27.2793 26.5607 27.5606C26.2794 27.8419 25.8978 27.9999 25.5 27.9999H4.5C4.10218 27.9999 3.72064 27.8419 3.43934 27.5606C3.15804 27.2793 3 26.8977 3 26.4999V5.49991C3 5.10208 3.15804 4.72055 3.43934 4.43925C3.72064 4.15794 4.10218 3.99991 4.5 3.99991H13.5C13.8978 3.99991 14.2794 3.84187 14.5607 3.56057C14.842 3.27926 15 2.89773 15 2.49991C15 2.10208 14.842 1.72055 14.5607 1.43925C14.2794 1.15794 13.8978 0.999908 13.5 0.999908H4.5C3.30653 0.999908 2.16193 1.47401 1.31802 2.31793C0.474106 3.16184 0 4.30643 0 5.49991V26.4999C0 27.6934 0.474106 28.838 1.31802 29.6819C2.16193 30.5258 3.30653 30.9999 4.5 30.9999H25.5C26.6935 30.9999 27.8381 30.5258 28.682 29.6819C29.5259 28.838 30 27.6934 30 26.4999V17.4999C30 17.1021 29.842 16.7206 29.5607 16.4392C29.2794 16.1579 28.8978 15.9999 28.5 15.9999ZM6 17.1399V23.4999C6 23.8977 6.15804 24.2793 6.43934 24.5606C6.72064 24.8419 7.10218 24.9999 7.5 24.9999H13.86C14.0574 25.001 14.2531 24.9632 14.4359 24.8886C14.6186 24.8139 14.7848 24.7039 14.925 24.5649L25.305 14.1699L29.565 9.99991C29.7056 9.86046 29.8172 9.69456 29.8933 9.51177C29.9695 9.32898 30.0087 9.13293 30.0087 8.93491C30.0087 8.73689 29.9695 8.54083 29.8933 8.35804C29.8172 8.17525 29.7056 8.00935 29.565 7.86991L23.205 1.43491C23.0656 1.29432 22.8997 1.18272 22.7169 1.10657C22.5341 1.03042 22.338 0.991211 22.14 0.991211C21.942 0.991211 21.7459 1.03042 21.5631 1.10657C21.3803 1.18272 21.2144 1.29432 21.075 1.43491L16.845 5.67991L6.435 16.0749C6.29598 16.2151 6.18599 16.3813 6.11134 16.564C6.0367 16.7468 5.99886 16.9425 6 17.1399ZM22.14 4.61491L26.385 8.85991L24.255 10.9899L20.01 6.74491L22.14 4.61491ZM9 17.7549L17.895 8.85991L22.14 13.1049L13.245 21.9999H9V17.7549Z" fill="#F75784"/>
</svg>
