<svg width="61" height="60" viewBox="0 0 61 60" fill="none" xmlns="http://www.w3.org/2000/svg">
<path d="M53.32 33.0001C52.66 33.0001 51.97 32.7901 51.31 32.6401C49.9734 32.3456 48.66 31.9545 47.38 31.4701C45.9883 30.9638 44.4584 30.9901 43.0849 31.5439C41.7114 32.0977 40.5912 33.14 39.94 34.4701L39.28 35.8201C36.358 34.1946 33.6729 32.1758 31.3 29.8201C28.9443 27.4471 26.9255 24.7621 25.3 21.8401L26.56 21.0001C27.8901 20.3488 28.9323 19.2287 29.4862 17.8552C30.04 16.4816 30.0663 14.9518 29.56 13.5601C29.0837 12.2774 28.6928 10.9645 28.39 9.63009C28.24 8.97009 28.12 8.28009 28.03 7.59009C27.6657 5.47695 26.5589 3.56332 24.9089 2.19381C23.2589 0.824303 21.1741 0.0889191 19.03 0.120093H10.03C8.73709 0.107953 7.45675 0.374533 6.27613 0.901684C5.09551 1.42884 4.04233 2.20418 3.18829 3.17494C2.33425 4.1457 1.6994 5.28907 1.32696 6.52724C0.954522 7.7654 0.853235 9.06927 1.03 10.3501C2.62821 22.9182 8.36808 34.5957 17.343 43.538C26.3178 52.4803 38.0161 58.1776 50.59 59.7301H51.73C53.9422 59.7333 56.0782 58.9217 57.73 57.4501C58.6791 56.6012 59.4372 55.5606 59.9544 54.397C60.4715 53.2335 60.7359 51.9734 60.73 50.7001V41.7001C60.6932 39.6162 59.9344 37.6097 58.583 36.0231C57.2316 34.4364 55.3714 33.368 53.32 33.0001ZM54.82 51.0001C54.8195 51.426 54.7282 51.847 54.5523 52.235C54.3765 52.6229 54.12 52.969 53.8 53.2501C53.4658 53.5411 53.0739 53.7583 52.65 53.8876C52.2261 54.0168 51.7797 54.0552 51.34 54.0001C40.1047 52.5595 29.6687 47.4195 21.6781 39.391C13.6876 31.3624 8.59723 20.9021 7.21 9.66009C7.16225 9.22065 7.20409 8.77608 7.333 8.35327C7.46191 7.93045 7.67521 7.53816 7.96 7.20009C8.24113 6.88009 8.58718 6.62362 8.97513 6.44774C9.36308 6.27187 9.78404 6.18063 10.21 6.18009H19.21C19.9076 6.16457 20.5889 6.39273 21.1364 6.8253C21.684 7.25788 22.0636 7.8678 22.21 8.55009C22.33 9.37009 22.48 10.1801 22.66 10.9801C23.0066 12.5615 23.4678 14.1156 24.04 15.6301L19.84 17.5801C19.4809 17.7449 19.1579 17.9789 18.8895 18.2689C18.6211 18.5588 18.4126 18.8989 18.276 19.2697C18.1394 19.6404 18.0774 20.0345 18.0935 20.4293C18.1097 20.824 18.2036 21.2117 18.37 21.5701C22.6876 30.8184 30.1217 38.2525 39.37 42.5701C40.1004 42.8701 40.9196 42.8701 41.65 42.5701C42.0241 42.4363 42.368 42.2295 42.6615 41.9617C42.9551 41.6939 43.1925 41.3704 43.36 41.0101L45.22 36.8101C46.7709 37.3647 48.3538 37.8256 49.96 38.1901C50.76 38.3701 51.57 38.5201 52.39 38.6401C53.0723 38.7865 53.6822 39.1661 54.1148 39.7137C54.5474 40.2612 54.7755 40.9425 54.76 41.6401L54.82 51.0001Z" fill="black"/>
</svg>
