<svg width="38" height="38" viewBox="0 0 38 38" fill="none" xmlns="http://www.w3.org/2000/svg">
<path d="M20.7029 0C10.2885 0 4.75 6.67375 4.75 13.9508C4.75 17.3256 6.63575 21.5341 9.65438 22.8689C10.1128 23.0755 10.3621 22.9876 10.4643 22.5625C10.5545 22.2395 10.9511 20.6839 11.1435 19.95C11.1777 19.8355 11.1808 19.714 11.1524 19.598C11.124 19.4819 11.0652 19.3755 10.982 19.2897C9.97975 18.1307 9.18413 16.0194 9.18413 14.0386C9.18413 8.96325 13.2192 4.03512 20.0854 4.03512C26.0229 4.03512 30.1768 7.89213 30.1768 13.4093C30.1768 19.6436 26.8779 23.9566 22.591 23.9566C20.2184 23.9566 18.4514 22.0946 19.0119 19.7909C19.6888 17.0478 21.0164 14.098 21.0164 12.1196C21.0164 10.3455 20.0141 8.87775 17.9669 8.87775C15.5515 8.87775 13.5921 11.2694 13.5921 14.4804C13.5921 16.5205 14.3141 17.898 14.3141 17.898L11.4808 29.3526C10.7303 32.4045 11.5829 37.3469 11.6565 37.772C11.7016 38.0071 11.9652 38.0807 12.1125 37.8884C12.3476 37.5796 15.2356 33.459 16.0455 30.4807C16.34 29.3954 17.5489 24.9945 17.5489 24.9945C18.3445 26.4314 20.6411 27.6355 23.0874 27.6355C30.3644 27.6355 35.6226 21.2396 35.6226 13.3024C35.5965 5.69287 29.0842 0 20.7029 0Z" fill="black"/>
</svg>
