<svg width="28" height="31" viewBox="0 0 28 31" fill="none" xmlns="http://www.w3.org/2000/svg">
<path d="M23 8.49993H22.475C22.8173 7.79908 22.9968 7.02991 23 6.24993C23.0045 5.20492 22.6962 4.18247 22.1147 3.31418C21.5332 2.44589 20.7052 1.77151 19.7371 1.37784C18.7691 0.984174 17.7054 0.889238 16.6829 1.10525C15.6605 1.32127 14.7261 1.83835 14 2.58993C13.2739 1.83835 12.3395 1.32127 11.3171 1.10525C10.2946 0.889238 9.23092 0.984174 8.26288 1.37784C7.29485 1.77151 6.46678 2.44589 5.88528 3.31418C5.30378 4.18247 4.99546 5.20492 5 6.24993C5.0032 7.02991 5.18267 7.79908 5.525 8.49993H5C3.80653 8.49993 2.66193 8.97404 1.81802 9.81795C0.974106 10.6619 0.5 11.8065 0.5 12.9999V15.9999C0.5 16.3978 0.658035 16.7793 0.93934 17.0606C1.22064 17.3419 1.60218 17.4999 2 17.4999H3.5V26.4999C3.5 27.6934 3.97411 28.838 4.81802 29.6819C5.66193 30.5258 6.80653 30.9999 8 30.9999H20C21.1935 30.9999 22.3381 30.5258 23.182 29.6819C24.0259 28.838 24.5 27.6934 24.5 26.4999V17.4999H26C26.3978 17.4999 26.7794 17.3419 27.0607 17.0606C27.342 16.7793 27.5 16.3978 27.5 15.9999V12.9999C27.5 11.8065 27.0259 10.6619 26.182 9.81795C25.3381 8.97404 24.1935 8.49993 23 8.49993ZM12.5 27.9999H8C7.60218 27.9999 7.22064 27.8419 6.93934 27.5606C6.65804 27.2793 6.5 26.8978 6.5 26.4999V17.4999H12.5V27.9999ZM12.5 14.4999H3.5V12.9999C3.5 12.6021 3.65804 12.2206 3.93934 11.9393C4.22064 11.658 4.60218 11.4999 5 11.4999H12.5V14.4999ZM12.5 8.49993H10.25C9.80499 8.49993 9.36998 8.36797 8.99997 8.12074C8.62996 7.87351 8.34157 7.52211 8.17127 7.11097C8.00097 6.69984 7.95642 6.24744 8.04323 5.81098C8.13005 5.37452 8.34434 4.97361 8.65901 4.65894C8.97368 4.34428 9.37459 4.12998 9.81105 4.04317C10.2475 3.95635 10.6999 4.00091 11.111 4.17121C11.5222 4.3415 11.8736 4.62989 12.1208 4.9999C12.368 5.36991 12.5 5.80493 12.5 6.24993V8.49993ZM15.5 6.24993C15.5 5.80493 15.632 5.36991 15.8792 4.9999C16.1264 4.62989 16.4778 4.3415 16.889 4.17121C17.3001 4.00091 17.7525 3.95635 18.189 4.04317C18.6254 4.12998 19.0263 4.34428 19.341 4.65894C19.6557 4.97361 19.87 5.37452 19.9568 5.81098C20.0436 6.24744 19.999 6.69984 19.8287 7.11097C19.6584 7.52211 19.37 7.87351 19 8.12074C18.63 8.36797 18.195 8.49993 17.75 8.49993H15.5V6.24993ZM21.5 26.4999C21.5 26.8978 21.342 27.2793 21.0607 27.5606C20.7794 27.8419 20.3978 27.9999 20 27.9999H15.5V17.4999H21.5V26.4999ZM24.5 14.4999H15.5V11.4999H23C23.3978 11.4999 23.7794 11.658 24.0607 11.9393C24.342 12.2206 24.5 12.6021 24.5 12.9999V14.4999Z" fill="white"/>
</svg>
