<svg width="18" height="20" viewBox="0 0 18 20" fill="none" xmlns="http://www.w3.org/2000/svg">
<path d="M1.5 11.5L12.885 11.5L7.935 16.435C7.65254 16.7174 7.49386 17.1005 7.49386 17.5C7.49386 17.8994 7.65254 18.2825 7.935 18.565C8.21745 18.8474 8.60055 19.0061 9 19.0061C9.39945 19.0061 9.78254 18.8474 10.065 18.565L17.565 11.065C17.7016 10.9223 17.8086 10.7541 17.88 10.57C18.03 10.2048 18.03 9.79516 17.88 9.42996C17.8086 9.24584 17.7016 9.07762 17.565 8.93497L10.065 1.43497C9.92555 1.29437 9.75965 1.18278 9.57686 1.10663C9.39408 1.03047 9.19802 0.991268 9 0.991268C8.80198 0.991268 8.60592 1.03047 8.42313 1.10663C8.24034 1.18278 8.07444 1.29437 7.935 1.43497C7.79441 1.57441 7.68282 1.74031 7.60666 1.9231C7.53051 2.10589 7.4913 2.30195 7.4913 2.49997C7.4913 2.69798 7.53051 2.89404 7.60666 3.07683C7.68282 3.25962 7.79441 3.42552 7.935 3.56496L12.885 8.49997L1.5 8.49997C1.10217 8.49997 0.720643 8.658 0.439338 8.93931C0.158034 9.22061 -4.76837e-07 9.60214 -4.76837e-07 9.99997C-4.76837e-07 10.3978 0.158034 10.7793 0.439338 11.0606C0.720643 11.3419 1.10217 11.5 1.5 11.5Z" fill="white"/>
</svg>
