<svg width="38" height="38" viewBox="0 0 38 38" fill="none" xmlns="http://www.w3.org/2000/svg">
<path d="M28.1538 8.07658C26.5878 6.256 25.7674 3.9038 25.8328 1.50904L19.9812 1.36768C19.9812 1.36768 19.9812 1.61734 19.9812 1.95402V25.4194C20.0629 32.8431 8.33378 32.663 9.26174 24.4572C9.82908 21.1946 13.335 19.1866 16.4502 20.3217V14.3511C9.66796 13.1701 3.24064 18.5684 3.30828 25.4456C3.90108 40.3606 25.2936 40.3625 25.8871 25.4456C25.7378 24.9117 25.8214 14.9724 25.8001 14.1342C28.4609 15.7898 31.5567 16.6175 34.6921 16.5114V10.3452C31.7935 10.3452 29.5815 9.57454 28.1538 8.07658Z" fill="black"/>
</svg>
