<svg width="37" height="38" viewBox="0 0 37 38" fill="none" xmlns="http://www.w3.org/2000/svg">
<path d="M37 8.40505C35.6082 9.0285 34.1362 9.44283 32.6294 9.6353C34.2173 8.66779 35.4046 7.13577 35.9663 5.32943C34.4794 6.2351 32.8526 6.87288 31.1563 7.21518C30.1162 6.07465 28.7662 5.28174 27.2817 4.93944C25.7971 4.59715 24.2467 4.7213 22.8317 5.29576C21.4168 5.87023 20.2027 6.86845 19.3474 8.16075C18.492 9.45305 18.0348 10.9797 18.0352 12.5423C18.0352 13.1598 18.0861 13.7536 18.2109 14.3188C15.1933 14.1669 12.2409 13.3625 9.5467 11.9583C6.8525 10.5542 4.47722 8.58179 2.57612 6.17018C1.60214 7.88459 1.30103 9.91581 1.7341 11.8502C2.16718 13.7847 3.30187 15.4768 4.90712 16.5822C3.70638 16.5491 2.53097 16.22 1.48 15.6227V15.7082C1.48201 17.5071 2.08741 19.2503 3.1943 20.6445C4.30118 22.0387 5.84195 22.9987 7.55725 23.3628C6.90833 23.5384 6.23956 23.6247 5.5685 23.6193C5.08655 23.6281 4.60508 23.5835 4.13244 23.4863C4.62255 25.0325 5.56732 26.3846 6.83666 27.3565C8.106 28.3284 9.63749 28.8722 11.2203 28.9132C8.5353 31.0698 5.22388 32.2396 1.81531 32.2358C1.19325 32.2358 0.596625 32.2073 0 32.1289C3.46848 34.4245 7.51025 35.6388 11.6365 35.6249C25.5947 35.6249 33.226 23.7499 33.226 13.4567C33.226 13.1123 33.2144 12.7798 33.1982 12.4497C34.6944 11.35 35.9827 9.9794 37 8.40505Z" fill="black"/>
</svg>
