<svg width="27" height="27" viewBox="0 0 27 27" fill="none" xmlns="http://www.w3.org/2000/svg">
<path d="M13.5 0.583252C10.9453 0.583252 8.448 1.3408 6.32387 2.7601C4.19973 4.1794 2.54417 6.19671 1.56654 8.55692C0.58891 10.9171 0.333117 13.5142 0.831509 16.0198C1.3299 18.5254 2.56009 20.827 4.36652 22.6334C6.17295 24.4398 8.47448 25.67 10.9801 26.1684C13.4857 26.6668 16.0828 26.411 18.443 25.4334C20.8032 24.4557 22.8205 22.8002 24.2398 20.676C25.6591 18.5519 26.4167 16.0546 26.4167 13.4999C26.4128 10.0754 25.0508 6.79218 22.6292 4.37066C20.2077 1.94914 16.9245 0.587061 13.5 0.583252ZM13.5 23.8333C11.4562 23.8333 9.4584 23.2272 7.75909 22.0918C6.05978 20.9563 4.73534 19.3425 3.95323 17.4543C3.17112 15.5661 2.96649 13.4885 3.3652 11.484C3.76392 9.47952 4.74807 7.63829 6.19321 6.19315C7.63836 4.74801 9.47958 3.76385 11.4841 3.36514C13.4885 2.96642 15.5662 3.17106 17.4544 3.95316C19.3426 4.73527 20.9564 6.05972 22.0918 7.75903C23.2273 9.45833 23.8333 11.4562 23.8333 13.4999C23.8302 16.2395 22.7405 18.866 20.8033 20.8032C18.8661 22.7404 16.2396 23.8301 13.5 23.8333ZM13.5 12.8541C13.1574 12.8541 12.8289 12.9902 12.5866 13.2324C12.3444 13.4746 12.2083 13.8032 12.2083 14.1458V18.0208C12.2083 18.3633 12.3444 18.6919 12.5866 18.9341C12.8289 19.1763 13.1574 19.3124 13.5 19.3124C13.8426 19.3124 14.1711 19.1763 14.4133 18.9341C14.6556 18.6919 14.7917 18.3633 14.7917 18.0208V14.1458C14.7917 13.8032 14.6556 13.4746 14.4133 13.2324C14.1711 12.9902 13.8426 12.8541 13.5 12.8541ZM13.5 7.68742C13.1807 7.68742 12.8685 7.78211 12.603 7.95953C12.3375 8.13694 12.1305 8.3891 12.0083 8.68413C11.8861 8.97915 11.8541 9.30379 11.9164 9.61699C11.9787 9.93019 12.1325 10.2179 12.3583 10.4437C12.5841 10.6695 12.8718 10.8233 13.185 10.8856C13.4982 10.9479 13.8228 10.9159 14.1179 10.7937C14.4129 10.6715 14.665 10.4645 14.8425 10.199C15.0199 9.9335 15.1146 9.62134 15.1146 9.302C15.1146 8.87379 14.9445 8.46311 14.6417 8.16032C14.3389 7.85753 13.9282 7.68742 13.5 7.68742Z" fill="#F75784"/>
</svg>
