<svg width="38" height="38" viewBox="0 0 38 38" fill="none" xmlns="http://www.w3.org/2000/svg">
<path fill-rule="evenodd" clip-rule="evenodd" d="M36.385 9.6425C35.3542 7.809 34.2356 7.47175 31.958 7.3435C29.6828 7.18913 23.9614 7.125 19.0047 7.125C14.0386 7.125 8.31487 7.18913 6.042 7.34113C3.76912 7.47175 2.64812 7.80662 1.60787 9.6425C0.54625 11.4736 0 14.6276 0 20.1804V20.1994C0 25.7284 0.54625 28.9061 1.60787 30.7183C2.64812 32.5518 3.76675 32.8843 6.03963 33.0386C8.31487 33.1716 14.0386 33.25 19.0047 33.25C23.9614 33.25 29.6827 33.1716 31.9604 33.041C34.238 32.8866 35.3566 32.5541 36.3874 30.7206C37.4585 28.9085 38 25.7307 38 20.2017V20.1828C38 14.6276 37.4585 11.4736 36.385 9.6425ZM14.25 27.3125V13.0625L26.125 20.1875L14.25 27.3125Z" fill="black"/>
</svg>
